<?xml version="1.0" encoding="utf-8"?>
<!-- Generator: Adobe Illustrator 27.6.1, SVG Export Plug-In . SVG Version: 6.00 Build 0)  -->
<svg version="1.1" id="Слой_1" xmlns="http://www.w3.org/2000/svg" xmlns:xlink="http://www.w3.org/1999/xlink" x="0px" y="0px"
	 viewBox="0 0 429.23 495.27" style="enable-background:new 0 0 429.23 495.27;" xml:space="preserve">
<g>
	<rect x="24.57" y="294.41" width="2.4" height="45.6"/>
	<rect x="62.2" y="350.21" transform="matrix(0.8661 -0.4998 0.4998 0.8661 -164.2642 89.5245)" width="45.59" height="2.4"/>
	<rect x="83.79" y="260.22" transform="matrix(0.5001 -0.866 0.866 0.5001 -202.5895 215.0704)" width="2.4" height="45.59"/>
	<rect x="118.95" y="400.07" transform="matrix(0.3321 -0.9433 0.9433 0.3321 -281.8708 404.4945)" width="51.44" height="2.4"/>
	<path d="M247.65,268.1l-31.27,18.07l4.51-35.11h-12l4.51,35.12l-47.19-27.25v-54.91v-1.31l47.56-27.46l0,0.01l1.12-0.65
		l48.68,28.11v1.31v34.4h2.4v-34.4v-2v-0.69l-2.32-1.35l0,0.01l-46.41-26.8l0.01-0.01l-2.36-1.34l-0.82,0.48l-47.93,27.68l0-0.01
		l-1.62,0.94l-0.1,0.06l0,0l-0.6,0.35v0.69v2v54.91l-48.68,28.11l-49.14-28.37l-0.74-0.43l-0.82,0.48l-47.94,27.68l0-0.01
		l-2.32,1.35v0.69v2v53.6v2v0.69l2.32,1.35l0-0.01l47.77,27.58l13.57,38.58l2.27-0.8l-13.39-38.06l48.42-27.96l48.42,27.96
		l-20.47,58.1h-1.15h-38.24v2.4h38.24h2h0.84l0.97-2.67l-0.02-0.01L166,375.63l47.78-27.59l0,0.01l1.62-0.94l0.1-0.06l0,0l0.6-0.35
		v-0.69v-2v-54.91l32.76-18.93L247.65,268.1z M16.57,290.41v-1.31l47.56-27.46l0,0.01l1.12-0.65l1.12,0.65l0-0.01l47.56,27.46v56.21
		l-48.68,28.11l-48.68-28.11v-1.31V290.41z M213.69,345.32l-48.68,28.11l-48.68-28.11v-56.21L165.01,261l48.68,28.11v54.91V345.32z"
		/>
	<rect x="174.22" y="208.01" width="2.4" height="45.6"/>
	<rect x="296.77" y="259.51" transform="matrix(0.5004 -0.8658 0.8658 0.5004 -92.4899 397.2704)" width="2.4" height="38.53"/>
	<polygon points="218.05,158.13 211.77,158.13 212.05,160.53 217.73,160.53 	"/>
	<polygon points="216.49,170.13 216.81,167.73 213.01,167.73 213.29,170.13 	"/>
	<polygon points="219.25,148.53 210.53,148.53 210.85,150.93 218.97,150.93 	"/>
	<polygon points="220.49,138.93 209.29,138.93 209.61,141.33 220.21,141.33 	"/>
	<polygon points="263.65,88.85 263.66,88.85 264.78,88.2 297.53,107.13 298.73,105.05 271.17,89.13 271.17,50.17 268.77,50.17 
		268.77,87.74 267.12,86.78 267.13,86.77 264.77,85.43 264.01,85.87 260.77,87.74 260.77,50.17 258.37,50.17 258.37,89.13 
		230.82,105.05 232.01,107.13 	"/>
	<polygon points="366.88,86.78 366.89,86.77 364.53,85.43 363.77,85.87 330.57,105.05 331.77,107.13 363.41,88.85 363.42,88.85 
		364.54,88.2 413.85,116.65 415.05,114.57 	"/>
	<polygon points="93.73,442.17 93.65,442.17 79.25,419.85 75.37,419.85 75.37,448.49 78.97,448.49 78.97,426.13 79.01,426.13 
		93.41,448.49 97.29,448.49 97.29,419.85 93.73,419.85 	"/>
	<polygon points="93.37,464.25 79.29,464.25 79.29,452.49 75.49,452.49 75.49,481.09 79.29,481.09 79.29,467.65 93.37,467.65 
		93.37,481.09 97.17,481.09 97.17,452.49 93.37,452.49 	"/>
	<polygon points="272.17,267.13 272.09,267.13 257.73,244.81 253.81,244.81 253.81,273.45 257.41,273.45 257.41,251.09 
		257.49,251.09 271.89,273.45 275.77,273.45 275.77,244.81 272.17,244.81 	"/>
	<polygon points="207.53,107.09 207.61,107.09 221.97,129.45 225.89,129.45 225.89,100.81 222.29,100.81 222.29,123.13 
		222.21,123.13 207.81,100.81 203.93,100.81 203.93,129.45 207.53,129.45 	"/>
	<polygon points="182.05,115.97 196.13,115.97 196.13,129.45 199.93,129.45 199.93,100.81 196.13,100.81 196.13,112.57 
		182.05,112.57 182.05,100.81 178.25,100.81 178.25,129.45 182.05,129.45 	"/>
	<polygon points="307.29,107.09 307.37,107.09 321.77,129.45 325.65,129.45 325.65,100.81 322.05,100.81 322.05,123.13 
		321.97,123.13 307.61,100.81 303.69,100.81 303.69,129.45 307.29,129.45 	"/>
	<path d="M257.77,41.93c3.12,1.84,7.04,1.84,7.04,1.84c3.92,0,7-1.84,7-1.84c3.12-1.8,4.88-5.16,4.88-5.16c1.8-3.36,1.8-7.8,1.8-7.8
		c0-4.48-1.8-7.84-1.8-7.84c-1.76-3.32-4.88-5.16-4.88-5.16c-3.08-1.8-7-1.8-7-1.8c-3.92,0-7.04,1.84-7.04,1.84
		c-3.12,1.84-4.92,5.2-4.92,5.2c-1.76,3.4-1.76,7.8-1.76,7.8c0,4.32,1.76,7.68,1.76,7.68C254.65,40.05,257.77,41.93,257.77,41.93z
		 M256.25,22.81c1.2-2.64,3.44-4,3.44-4c2.2-1.4,5.08-1.4,5.08-1.4c2.88,0,5.12,1.4,5.12,1.4c2.2,1.4,3.44,4.04,3.44,4.04
		c1.24,2.64,1.24,6.2,1.24,6.2c0,3.56-1.28,6.16-1.28,6.16c-1.24,2.6-3.44,3.96-3.44,3.96c-2.24,1.36-5.08,1.36-5.08,1.36
		c-2.84,0-5.04-1.36-5.04-1.36c-2.24-1.36-3.48-3.96-3.48-3.96c-1.24-2.6-1.24-6.12-1.24-6.12
		C255.01,25.49,256.25,22.81,256.25,22.81z"/>
	<polygon points="317.01,173.17 315.85,172.51 315.85,171.21 315.85,135.85 313.45,135.85 313.45,171.21 313.45,173.21 
		313.45,173.91 314.08,174.27 363.93,203.05 365.13,200.97 317,173.18 	"/>
	<polygon points="225.73,244.65 225.73,216.01 221.93,216.01 221.93,227.77 207.85,227.77 207.85,216.01 204.05,216.01 
		204.05,244.65 207.85,244.65 207.85,231.17 221.93,231.17 221.93,244.65 	"/>
</g>
</svg>
