<?xml version="1.0" encoding="UTF-8"?>
<svg width="236pt" xmlns:xlink="http://www.w3.org/1999/xlink" xmlns="http://www.w3.org/2000/svg" height="142pt" viewBox="0 0 236 142" >
 <g transform="translate(2.7998, 29.6992)" style="fill:#161413; fill-rule:nonzero; stroke:none; stroke-width:1.7; stroke-linecap:butt; stroke-linejoin:miter; stroke-dasharray:none;" >
  <path d="M1.7002 39.6504 C1.7002 39.6504 0 40.6006 0 40.6006 C0 40.6006 0 0 0 0 C0 0 1.7002 0.9502 1.7002 0.9502 C1.7002 0.9502 1.7002 39.6504 1.7002 39.6504 Z" />
 </g>
 <g transform="translate(8.75, 33.5996)" style="fill:#161413; fill-rule:nonzero; stroke:none; stroke-width:1.7; stroke-linecap:butt; stroke-linejoin:miter; stroke-dasharray:none;" >
  <path d="M1.6992 32.7998 C1.6992 32.7998 0 32.7998 0 32.7998 C0 32.7998 0 0 0 0 C0 0 1.6992 0 1.6992 0 C1.6992 0 1.6992 32.7998 1.6992 32.7998 Z" />
 </g>
 <g transform="translate(2.7998, 69.3496)" style="fill:#161413; fill-rule:nonzero; stroke:none; stroke-width:1.7; stroke-linecap:butt; stroke-linejoin:miter; stroke-dasharray:none;" >
  <path d="M35.2002 19.2998 C35.2002 19.2998 35.2002 20.2998 35.2002 20.2998 C35.2002 20.2998 34.4502 20.8496 34.4502 20.8496 C34.4502 20.8496 0 0.9502 0 0.9502 C0 0.9502 1.7002 0 1.7002 0 C1.7002 0 35.2002 19.2998 35.2002 19.2998 Z" />
 </g>
 <g transform="translate(38, 69.3496)" style="fill:#161413; fill-rule:nonzero; stroke:none; stroke-width:1.7; stroke-linecap:butt; stroke-linejoin:miter; stroke-dasharray:none;" >
  <path d="M33.5 0 C33.5 0 34.3496 0.5 34.3496 0.5 C34.3496 0.5 34.25 1.5 34.25 1.5 C34.25 1.5 0.9492 20.75 0.9492 20.75 C0.9492 20.75 0 20.2998 0 20.2998 C0 20.2998 0 19.2998 0 19.2998 C0 19.2998 33.5 0 33.5 0 Z" />
 </g>
 <g transform="translate(37.5996, 65.6494)" style="fill:#161413; fill-rule:nonzero; stroke:none; stroke-width:1.7; stroke-linecap:butt; stroke-linejoin:miter; stroke-dasharray:none;" >
  <path d="M28.3496 0 C28.3496 0 29.2002 1.5 29.2002 1.5 C29.2002 1.5 0.8496 17.8506 0.8496 17.8506 C0.8496 17.8506 0 16.4004 0 16.4004 C0 16.4004 28.3496 0 28.3496 0 Z" />
 </g>
 <g transform="translate(71.5, 30.1992)" style="fill:#161413; fill-rule:nonzero; stroke:none; stroke-width:1.7; stroke-linecap:butt; stroke-linejoin:miter; stroke-dasharray:none;" >
  <path d="M0 0.4502 C0 0.4502 0.8496 0 0.8496 0 C0.8496 0 1.6992 0.4502 1.6992 0.4502 C1.6992 0.4502 1.6992 39.25 1.6992 39.25 C1.6992 39.25 0.8496 39.6504 0.8496 39.6504 C0.8496 39.6504 0 39.1504 0 39.1504 C0 39.1504 0 0.4502 0 0.4502 Z" />
 </g>
 <g transform="translate(38, 9.34961)" style="fill:#161413; fill-rule:nonzero; stroke:none; stroke-width:1.7; stroke-linecap:butt; stroke-linejoin:miter; stroke-dasharray:none;" >
  <path d="M0 1.99999 C0 1.99999 0 0 0 0 C0 0 34.3496 19.8496 34.3496 19.8496 C34.3496 19.8496 34.3496 20.8496 34.3496 20.8496 C34.3496 20.8496 33.5 21.2998 33.5 21.2998 C33.5 21.2998 0 1.99999 0 1.99999 Z" />
 </g>
 <g transform="translate(37.5996, 16.5)" style="fill:#161413; fill-rule:nonzero; stroke:none; stroke-width:1.7; stroke-linecap:butt; stroke-linejoin:miter; stroke-dasharray:none;" >
  <path d="M0 1.4492 C0 1.4492 0.8496 0 0.8496 0 C0.8496 0 29.2002 16.3994 29.2002 16.3994 C29.2002 16.3994 28.3496 17.8496 28.3496 17.8496 C28.3496 17.8496 0 1.4492 0 1.4492 Z" />
 </g>
 <g transform="translate(2.7998, 9.34961)" style="fill:#161413; fill-rule:nonzero; stroke:none; stroke-width:1.7; stroke-linecap:butt; stroke-linejoin:miter; stroke-dasharray:none;" >
  <path d="M1.7002 21.2998 C1.7002 21.2998 0 20.3496 0 20.3496 C0 20.3496 35.2002 0 35.2002 0 C35.2002 0 35.2002 1.99999 35.2002 1.99999 C35.2002 1.99999 1.7002 21.2998 1.7002 21.2998 Z" />
 </g>
 <g transform="translate(22.2422, 120.504)" style="fill:#161413; fill-rule:evenodd; stroke:none; stroke-width:1.7; stroke-linecap:butt; stroke-linejoin:miter; stroke-dasharray:none;" >
  <path d="M11.2314 9.528 C11.2314 9.528 11.2314 17.496 11.2314 17.496 C11.2314 17.496 13.4639 17.496 13.4639 17.496 C13.4639 17.496 13.4639 0 13.4639 0 C13.4639 0 11.2314 0 11.2314 0 C11.2314 0 11.2314 7.56 11.2314 7.56 C11.2314 7.56 2.2314 7.56 2.2314 7.56 C2.2314 7.56 2.2314 0 2.2314 0 C2.2314 0 0 0 0 0 C0 0 0 17.496 0 17.496 C0 17.496 2.2558 17.496 2.2558 17.496 C2.2558 17.496 2.2558 9.528 2.2558 9.528 C2.2558 9.528 11.2314 9.528 11.2314 9.528 Z" />
 </g>
 <g transform="translate(39.5742, 120.504)" style="fill:#161413; fill-rule:evenodd; stroke:none; stroke-width:1.7; stroke-linecap:butt; stroke-linejoin:miter; stroke-dasharray:none;" >
  <path d="M13.6797 0 C13.6797 0 11.5674 0 11.5674 0 C11.5674 0 11.5674 14.304 11.5674 14.304 C11.5674 14.304 2.4238 0 2.4238 0 C2.4238 0 0 0 0 0 C0 0 0 17.496 0 17.496 C0 17.496 2.1113 17.496 2.1113 17.496 C2.1113 17.496 2.1113 3.312 2.1113 3.312 C2.1113 3.312 11.1602 17.496 11.1602 17.496 C11.1602 17.496 13.6797 17.496 13.6797 17.496 C13.6797 17.496 13.6797 0 13.6797 0 Z" />
 </g>
 <g transform="translate(37.25, 89.6494)" style="fill:#161413; fill-rule:nonzero; stroke:none; stroke-width:1.7; stroke-linecap:butt; stroke-linejoin:miter; stroke-dasharray:none;" >
  <path d="M7.5996 27.9996 C7.5996 27.9996 5.8994 28.3506 5.8994 28.3506 C5.8994 28.3506 0 0.5498 0 0.5498 C0 0.5498 0.75 0 0.75 0 C0.75 0 1.6992 0.4502 1.6992 0.4502 C1.6992 0.4502 7.5996 27.9996 7.5996 27.9996 Z" />
 </g>
 <g transform="translate(55, 127.6)" style="fill:#161413; fill-rule:nonzero; stroke:none; stroke-width:1.7; stroke-linecap:butt; stroke-linejoin:miter; stroke-dasharray:none;" >
  <path d="M30.1494 4.049 C30.1494 4.049 31.1992 5.9 31.1992 5.9 C31.1992 5.9 0 1.7 0 1.7 C0 1.7 0.1992 0 0.1992 0 C0.1992 0 30.1494 4.049 30.1494 4.049 Z" />
 </g>
 <g transform="translate(85.1494, 96.3496)" style="fill:#161413; fill-rule:nonzero; stroke:none; stroke-width:1.7; stroke-linecap:butt; stroke-linejoin:miter; stroke-dasharray:none;" >
  <path d="M15.6506 0.25 C15.6506 0.25 16.6506 0 16.6506 0 C16.6506 0 17.2496 0.75 17.2496 0.75 C17.2496 0.75 1.0498 37.1504 1.0498 37.1504 C1.0498 37.1504 0 35.2994 0 35.2994 C0 35.2994 15.6506 0.25 15.6506 0.25 Z" />
 </g>
 <g transform="translate(81.25, 97.5498)" style="fill:#161413; fill-rule:nonzero; stroke:none; stroke-width:1.7; stroke-linecap:butt; stroke-linejoin:miter; stroke-dasharray:none;" >
  <path d="M12.5996 0 C12.5996 0 14.1494 0.7002 14.1494 0.7002 C14.1494 0.7002 1.5498 29.0002 1.5498 29.0002 C1.5498 29.0002 0 28.3002 0 28.3002 C0 28.3002 12.5996 0 12.5996 0 Z" />
 </g>
 <g transform="translate(72.25, 69.4492)" style="fill:#161413; fill-rule:nonzero; stroke:none; stroke-width:1.7; stroke-linecap:butt; stroke-linejoin:miter; stroke-dasharray:none;" >
  <path d="M0 1.4004 C0 1.4004 0.0996 0.4004 0.0996 0.4004 C0.0996 0.4004 0.9492 0 0.9492 0 C0.9492 0 29.8 26 29.8 26 C29.8 26 29.55 26.9004 29.55 26.9004 C29.55 26.9004 28.55 27.1504 28.55 27.1504 C28.55 27.1504 0 1.4004 0 1.4004 Z" />
 </g>
 <g transform="translate(101.8, 87.1992)" style="fill:#161413; fill-rule:nonzero; stroke:none; stroke-width:1.7; stroke-linecap:butt; stroke-linejoin:miter; stroke-dasharray:none;" >
  <path d="M39.099 0 C39.099 0 38.5 1.8506 38.5 1.8506 C38.5 1.8506 0.599 9.9004 0.599 9.9004 C0.599 9.9004 0 9.1504 0 9.1504 C0 9.1504 0.25 8.25 0.25 8.25 C0.25 8.25 39.099 0 39.099 0 Z" />
 </g>
 <g transform="translate(140.3, 87.1992)" style="fill:#161413; fill-rule:nonzero; stroke:none; stroke-width:1.7; stroke-linecap:butt; stroke-linejoin:miter; stroke-dasharray:none;" >
  <path d="M27.149 29.4498 C27.149 29.4498 26.5 31.3008 26.5 31.3008 C26.5 31.3008 0 1.8506 0 1.8506 C0 1.8506 0.599 0 0.599 0 C0.599 0 27.149 29.4498 27.149 29.4498 Z" />
 </g>
 <g transform="translate(199.074, 101.254)" style="fill:#161413; fill-rule:evenodd; stroke:none; stroke-width:1.7; stroke-linecap:butt; stroke-linejoin:miter; stroke-dasharray:none;" >
  <path d="M13.68 0 C13.68 0 11.568 0 11.568 0 C11.568 0 11.568 14.304 11.568 14.304 C11.568 14.304 2.424 0 2.424 0 C2.424 0 0 0 0 0 C0 0 0 17.496 0 17.496 C0 17.496 2.112 17.496 2.112 17.496 C2.112 17.496 2.112 3.312 2.112 3.312 C2.112 3.312 11.16 17.496 11.16 17.496 C11.16 17.496 13.68 17.496 13.68 17.496 C13.68 17.496 13.68 0 13.68 0 Z" />
 </g>
 <g transform="translate(166.8, 110.55)" style="fill:#161413; fill-rule:nonzero; stroke:none; stroke-width:1.7; stroke-linecap:butt; stroke-linejoin:miter; stroke-dasharray:none;" >
  <path d="M29.25 0 C29.25 0 29.599 1.7 29.599 1.7 C29.599 1.7 0 7.95 0 7.95 C0 7.95 0.649 6.099 0.649 6.099 C0.649 6.099 29.25 0 29.25 0 Z" />
 </g>
 <g transform="translate(208.649, 71.3496)" style="fill:#161413; fill-rule:nonzero; stroke:none; stroke-width:1.7; stroke-linecap:butt; stroke-linejoin:miter; stroke-dasharray:none;" >
  <path d="M8.701 0 C8.701 0 10.3 0.5498 10.3 0.5498 C10.3 0.5498 1.601 27.4004 1.601 27.4004 C1.601 27.4004 0 26.8496 0 26.8496 C0 26.8496 8.701 0 8.701 0 Z" />
 </g>
 <g transform="translate(98.1621, 1.96582)" style="fill:#161413; fill-rule:evenodd; stroke:none; stroke-width:1.7; stroke-linecap:butt; stroke-linejoin:miter; stroke-dasharray:none;" >
  <path d="M8.4239 0 C3.4079 0 0 3.69629 0 9.16798 C0 14.6406 3.4079 18.336 8.4479 18.336 C10.5599 18.336 12.4559 17.6885 13.8719 16.4883 C15.7679 14.8799 16.8959 12.168 16.8959 9.31248 C16.8959 3.67188 13.5599 0 8.4239 0 Z M8.4239 1.96777 C12.2159 1.96777 14.6639 4.84863 14.6639 9.26468 C14.6639 13.4883 12.1439 16.3682 8.4479 16.3682 C4.7279 16.3682 2.2319 13.4883 2.2319 9.16798 C2.2319 4.84863 4.7279 1.96777 8.4239 1.96777 Z" />
 </g>
 <g transform="translate(117.992, 2.25391)" style="fill:#161413; fill-rule:evenodd; stroke:none; stroke-width:1.7; stroke-linecap:butt; stroke-linejoin:miter; stroke-dasharray:none;" >
  <path d="M11.232 9.52829 C11.232 9.52829 11.232 17.4961 11.232 17.4961 C11.232 17.4961 13.464 17.4961 13.464 17.4961 C13.464 17.4961 13.464 0 13.464 0 C13.464 0 11.232 0 11.232 0 C11.232 0 11.232 7.56054 11.232 7.56054 C11.232 7.56054 2.232 7.56054 2.232 7.56054 C2.232 7.56054 2.232 0 2.232 0 C2.232 0 0 0 0 0 C0 0 0 17.4961 0 17.4961 C0 17.4961 2.256 17.4961 2.256 17.4961 C2.256 17.4961 2.256 9.52829 2.256 9.52829 C2.256 9.52829 11.232 9.52829 11.232 9.52829 Z" />
 </g>
 <g transform="translate(72.3496, 15.25)" style="fill:#161413; fill-rule:nonzero; stroke:none; stroke-width:1.7; stroke-linecap:butt; stroke-linejoin:miter; stroke-dasharray:none;" >
  <path d="M24.1504 0 C24.1504 0 25 1.4492 25 1.4492 C25 1.4492 0.8496 15.3994 0.8496 15.3994 C0.8496 15.3994 0 14.9492 0 14.9492 C0 14.9492 0 13.9492 0 13.9492 C0 13.9492 24.1504 0 24.1504 0 Z" />
 </g>
 <g transform="translate(214.5, 119)" style="fill:#161413; fill-rule:nonzero; stroke:none; stroke-width:1.7; stroke-linecap:butt; stroke-linejoin:miter; stroke-dasharray:none;" >
  <path d="M18.55 19.25 C18.55 19.25 17.3 20.35 17.3 20.35 C17.3 20.35 0 1.149 0 1.149 C0 1.149 1.25 0 1.25 0 C1.25 0 18.55 19.25 18.55 19.25 Z" />
 </g>
</svg>
