<?xml version="1.0" encoding="utf-8"?>
<!-- Generator: Adobe Illustrator 19.2.1, SVG Export Plug-In . SVG Version: 6.00 Build 0)  -->
<svg version="1.1" id="Слой_1" xmlns="http://www.w3.org/2000/svg" xmlns:xlink="http://www.w3.org/1999/xlink" x="0px" y="0px"
	 viewBox="0 0 416.9 303.2" style="enable-background:new 0 0 416.9 303.2;" xml:space="preserve">
<g>
	<rect x="37.1" y="110.9" transform="matrix(0.6691 -0.7431 0.7431 0.6691 -63.4802 81.5908)" width="45.6" height="2.4"/>
	<rect x="79.8" y="154.4" transform="matrix(0.2079 -0.9781 0.9781 0.2079 -109.1162 219.6074)" width="2.4" height="45.6"/>
	<rect x="125.6" y="103.5" transform="matrix(0.951 -0.3093 0.3093 0.951 -32.8491 45.4225)" width="2.4" height="45.6"/>
	<polygon points="186.1,178.7 181.3,224.1 183.7,224.3 188.5,178.9 	"/>
	<path d="M330.5,153.8l-31.4,18.1l0,0l-1.1,0.7l-1.1-0.7l0,0l-46.4-26.8l0,0l-1.7-1l-0.6-0.3l-0.6,0.3l-1.7,1l0,0l-47.6,27.5
		l-51.6-23l-17-52.4l0,0l-0.6-1.9l-0.2-0.7l-0.7-0.1l-2-0.4v0L72.4,82.7L61.2,48.2l-2.3,0.7l11.2,34.6L32,125.7l-0.5,0.5l0.2,0.7
		L49,179.8h0l0.6,1.9l0.2,0.7l0.7,0.1l2,0.4v0l53.9,11.4l16.9,29.3l2.1-1.2l-16.8-29l37.4-41.5l51,22.7l-5.8,55.6l-38,8.1l0.5,2.3
		l36.9-7.8v0l2-0.4l0.9-0.2l0.1-0.9l6-56.7l47.6-27.5l0,0l1.1-0.7l1.1,0.7l0,0l46.4,26.8l0,0l1.7,1l0.6,0.3l0.6-0.3l1.7-1l0,0
		l31.4-18.1L330.5,153.8z M145.6,150.5L145.6,150.5L145.6,150.5L145.6,150.5z M107.1,193.3L107.1,193.3L107.1,193.3L107.1,193.3z
		 M106.6,192l-55-11.7l-17.4-53.5l0.9-1l0,0l36.7-40.8l55,11.7l17.4,53.5L106.6,192z"/>
	<path d="M53.7,43.3c8,0,13-5.6,13-14.6s-5-14.6-13-14.6c-8,0-13,5.6-13,14.6S45.7,43.3,53.7,43.3z M53.7,17.4
		c5.8,0,9.4,4.4,9.4,11.3c0,6.9-3.6,11.3-9.4,11.3c-5.8,0-9.4-4.4-9.4-11.3C44.3,21.8,47.9,17.4,53.7,17.4z"/>
	<polygon points="33.2,42.8 36.7,42.8 36.7,14.6 33.2,14.6 33.2,26.8 17.7,26.8 17.7,14.6 14.2,14.6 14.2,42.8 17.7,42.8 17.7,30 
		33.2,30 	"/>
	<polygon points="143.6,250.8 143.5,250.8 128,228.6 124.6,228.6 124.6,256.8 128.1,256.8 128.1,234.8 128.3,234.8 143.7,256.8 
		147.1,256.8 147.1,228.6 143.6,228.6 	"/>
	<polygon points="143.6,273 128.1,273 128.1,260.8 124.6,260.8 124.6,289 128.1,289 128.1,276.2 143.6,276.2 143.6,289 147.1,289 
		147.1,260.8 143.6,260.8 	"/>
	<polygon points="355.6,152.7 355.5,152.7 340,130.6 336.6,130.6 336.6,158.8 340.1,158.8 340.1,136.7 340.3,136.7 355.7,158.8 
		359.1,158.8 359.1,130.6 355.6,130.6 	"/>
	<polygon points="382.1,142.8 366.6,142.8 366.6,130.6 363.1,130.6 363.1,158.8 366.6,158.8 366.6,145.9 382.1,145.9 382.1,158.8 
		385.6,158.8 385.6,130.6 382.1,130.6 	"/>
	<path d="M393.1,162.8L393.1,162.8l5-5.2c3.3-3.4,4.3-5,4.3-7.2c0-3-2.8-5.4-6.3-5.4c-3.7,0-6.5,2.6-6.5,6v0h2.4v0
		c0-2.2,1.7-3.9,4.1-3.9c2.2,0,3.9,1.5,3.9,3.4c0,1.6-0.6,2.7-3.3,5.5l-6.9,7.3v1.7h13v-2.2H393.1z"/>
</g>
</svg>
