<?xml version="1.0" encoding="utf-8" standalone="no"?>
<!DOCTYPE svg PUBLIC "-//W3C//DTD SVG 1.1//EN"
  "http://www.w3.org/Graphics/SVG/1.1/DTD/svg11.dtd">
<svg xmlns:xlink="http://www.w3.org/1999/xlink" width="709.610625pt" height="135.674687pt" viewBox="0 0 709.610625 135.674687" xmlns="http://www.w3.org/2000/svg" version="1.1">
 <metadata>
  <rdf:RDF xmlns:dc="http://purl.org/dc/elements/1.1/" xmlns:cc="http://creativecommons.org/ns#" xmlns:rdf="http://www.w3.org/1999/02/22-rdf-syntax-ns#">
   <cc:Work>
    <dc:type rdf:resource="http://purl.org/dc/dcmitype/StillImage"/>
    <dc:date>2024-05-18T17:42:33.986551</dc:date>
    <dc:format>image/svg+xml</dc:format>
    <dc:creator>
     <cc:Agent>
      <dc:title>Matplotlib v3.8.2, https://matplotlib.org/</dc:title>
     </cc:Agent>
    </dc:creator>
   </cc:Work>
  </rdf:RDF>
 </metadata>
 <defs>
  <style type="text/css">*{stroke-linejoin: round; stroke-linecap: butt}</style>
 </defs>
 <g id="figure_1">
  <g id="patch_1">
   <path d="M 0 135.674687 
L 709.610625 135.674687 
L 709.610625 0 
L 0 0 
z
" style="fill: #ffffff"/>
  </g>
  <g id="axes_1">
   <g id="patch_2">
    <path d="M 34.240625 98.118437 
L 221.979158 98.118437 
L 221.979158 20.798437 
L 34.240625 20.798437 
z
" style="fill: #ffffff"/>
   </g>
   <g id="PolyCollection_1">
    <defs>
     <path id="m9912628951" d="M 42.774195 -75.37717 
L 42.774195 -49.335754 
L 44.498148 -56.743955 
L 46.222102 -64.285124 
L 47.946055 -57.840102 
L 49.670009 -62.451423 
L 51.393962 -60.277499 
L 53.117916 -58.804613 
L 54.841869 -59.709409 
L 56.565822 -57.525697 
L 58.289776 -57.968133 
L 60.013729 -57.151342 
L 61.737683 -54.923372 
L 63.461636 -55.981685 
L 65.18559 -57.459743 
L 66.909543 -53.607133 
L 68.633497 -54.163376 
L 70.35745 -52.987623 
L 72.081404 -53.241141 
L 73.805357 -54.397421 
L 75.529311 -53.036624 
L 77.253264 -52.393391 
L 78.977218 -50.769998 
L 80.701171 -45.632097 
L 82.425125 -44.141378 
L 84.149078 -48.863764 
L 85.873032 -49.087329 
L 87.596985 -52.562147 
L 89.320938 -54.780861 
L 91.044892 -55.673156 
L 92.768845 -55.905694 
L 94.492799 -56.14774 
L 96.216752 -53.378687 
L 97.940706 -52.086137 
L 99.664659 -52.150186 
L 101.388613 -52.360943 
L 103.112566 -53.00638 
L 104.83652 -50.36403 
L 106.560473 -52.565115 
L 108.284427 -52.815367 
L 110.00838 -52.601443 
L 111.732334 -53.240149 
L 113.456287 -58.131166 
L 115.180241 -61.1429 
L 116.904194 -60.064222 
L 118.628148 -61.581157 
L 120.352101 -60.229962 
L 122.076055 -58.301567 
L 123.800008 -57.740236 
L 125.523961 -55.763213 
L 127.247915 -54.579126 
L 128.971868 -57.840969 
L 130.695822 -61.167904 
L 132.419775 -63.114942 
L 134.143729 -62.894788 
L 135.867682 -61.257393 
L 137.591636 -60.664623 
L 139.315589 -58.78671 
L 141.039543 -57.723738 
L 142.763496 -55.985186 
L 144.48745 -56.38751 
L 146.211403 -55.395959 
L 147.935357 -55.651433 
L 149.65931 -54.576972 
L 151.383264 -55.432575 
L 153.107217 -53.338159 
L 154.831171 -52.7616 
L 156.555124 -51.165312 
L 158.279077 -49.890481 
L 160.003031 -50.927508 
L 161.726984 -51.78915 
L 163.450938 -57.87529 
L 165.174891 -61.259778 
L 166.898845 -62.012746 
L 168.622798 -63.512577 
L 170.346752 -61.288016 
L 172.070705 -58.325223 
L 173.794659 -57.621445 
L 175.518612 -55.94177 
L 177.242566 -55.881435 
L 178.966519 -55.601377 
L 180.690473 -51.735216 
L 182.414426 -51.259066 
L 184.13838 -51.543441 
L 185.862333 -52.154744 
L 187.586287 -54.308349 
L 189.31024 -56.973578 
L 191.034193 -58.776046 
L 192.758147 -58.316374 
L 194.4821 -56.824821 
L 196.206054 -54.709107 
L 197.930007 -53.976452 
L 199.653961 -53.75956 
L 201.377914 -51.65455 
L 203.101868 -56.979036 
L 204.825821 -57.468542 
L 206.549775 -60.077314 
L 208.273728 -57.616354 
L 209.997682 -56.688595 
L 211.721635 -56.436798 
L 213.445589 -56.379353 
L 213.445589 -66.847707 
L 213.445589 -66.847707 
L 211.721635 -67.165731 
L 209.997682 -67.587178 
L 208.273728 -67.825574 
L 206.549775 -72.363651 
L 204.825821 -69.671524 
L 203.101868 -68.351116 
L 201.377914 -61.177355 
L 199.653961 -64.732444 
L 197.930007 -63.615591 
L 196.206054 -65.770577 
L 194.4821 -67.392826 
L 192.758147 -67.726069 
L 191.034193 -70.065921 
L 189.31024 -68.277869 
L 187.586287 -62.914184 
L 185.862333 -62.177121 
L 184.13838 -59.503891 
L 182.414426 -58.992306 
L 180.690473 -59.509388 
L 178.966519 -64.575552 
L 177.242566 -65.334553 
L 175.518612 -67.398686 
L 173.794659 -67.892776 
L 172.070705 -68.064779 
L 170.346752 -70.510114 
L 168.622798 -73.615605 
L 166.898845 -71.498854 
L 165.174891 -71.922903 
L 163.450938 -66.665755 
L 161.726984 -61.676752 
L 160.003031 -59.008329 
L 158.279077 -58.910259 
L 156.555124 -58.273398 
L 154.831171 -61.616286 
L 153.107217 -61.797838 
L 151.383264 -63.685433 
L 149.65931 -65.823693 
L 147.935357 -66.334507 
L 146.211403 -65.638262 
L 144.48745 -65.784442 
L 142.763496 -66.058568 
L 141.039543 -68.34628 
L 139.315589 -69.493638 
L 137.591636 -73.521508 
L 135.867682 -72.683105 
L 134.143729 -74.32169 
L 132.419775 -74.544183 
L 130.695822 -71.19814 
L 128.971868 -68.843817 
L 127.247915 -64.127358 
L 125.523961 -66.354031 
L 123.800008 -68.046559 
L 122.076055 -70.021329 
L 120.352101 -70.450676 
L 118.628148 -70.728507 
L 116.904194 -70.372988 
L 115.180241 -72.179573 
L 113.456287 -65.863413 
L 111.732334 -61.779642 
L 110.00838 -61.216614 
L 108.284427 -62.263097 
L 106.560473 -61.759326 
L 104.83652 -59.056095 
L 103.112566 -61.928721 
L 101.388613 -60.707181 
L 99.664659 -59.584225 
L 97.940706 -61.318288 
L 96.216752 -63.422428 
L 94.492799 -66.725813 
L 92.768845 -65.115213 
L 91.044892 -66.33793 
L 89.320938 -67.350867 
L 87.596985 -64.376125 
L 85.873032 -61.77994 
L 84.149078 -59.529621 
L 82.425125 -56.893665 
L 80.701171 -57.452484 
L 78.977218 -60.466543 
L 77.253264 -61.162313 
L 75.529311 -60.717966 
L 73.805357 -60.79497 
L 72.081404 -60.838117 
L 70.35745 -61.740103 
L 68.633497 -62.743356 
L 66.909543 -61.435157 
L 65.18559 -65.416695 
L 63.461636 -64.608052 
L 61.737683 -64.023589 
L 60.013729 -66.219516 
L 58.289776 -66.724577 
L 56.565822 -66.68896 
L 54.841869 -67.954081 
L 53.117916 -68.862582 
L 51.393962 -68.503077 
L 49.670009 -74.826048 
L 47.946055 -71.31168 
L 46.222102 -86.183682 
L 44.498148 -77.040927 
L 42.774195 -75.37717 
z
" style="stroke: #1f77b4; stroke-opacity: 0.2"/>
    </defs>
    <g clip-path="url(#pd6ac00a994)">
     <use xlink:href="#m9912628951" x="0" y="135.674687" style="fill: #1f77b4; fill-opacity: 0.2; stroke: #1f77b4; stroke-opacity: 0.2"/>
    </g>
   </g>
   <g id="PolyCollection_2">
    <defs>
     <path id="m89d9f80446" d="M 42.774195 -88.791174 
L 42.774195 -51.551248 
L 44.498148 -56.392401 
L 46.222102 -67.749111 
L 47.946055 -73.936877 
L 49.670009 -78.297038 
L 51.393962 -72.951651 
L 53.117916 -73.556409 
L 54.841869 -72.828654 
L 56.565822 -80.746572 
L 58.289776 -83.366173 
L 60.013729 -88.756129 
L 61.737683 -85.970843 
L 63.461636 -82.903801 
L 65.18559 -80.736278 
L 66.909543 -74.687735 
L 68.633497 -74.108119 
L 70.35745 -73.052183 
L 72.081404 -68.166523 
L 73.805357 -66.870724 
L 75.529311 -64.751525 
L 77.253264 -64.24715 
L 78.977218 -62.085105 
L 80.701171 -59.14465 
L 82.425125 -58.389287 
L 84.149078 -59.177227 
L 85.873032 -57.367124 
L 87.596985 -57.957963 
L 89.320938 -59.016258 
L 91.044892 -58.949266 
L 92.768845 -58.954368 
L 94.492799 -57.075409 
L 96.216752 -56.347792 
L 97.940706 -54.88505 
L 99.664659 -55.508197 
L 101.388613 -51.718321 
L 103.112566 -54.850874 
L 104.83652 -58.310454 
L 106.560473 -59.966584 
L 108.284427 -59.14354 
L 110.00838 -57.22864 
L 111.732334 -56.232063 
L 113.456287 -56.603771 
L 115.180241 -61.459625 
L 116.904194 -61.41288 
L 118.628148 -63.14553 
L 120.352101 -61.704292 
L 122.076055 -59.768585 
L 123.800008 -57.75377 
L 125.523961 -55.719591 
L 127.247915 -56.160826 
L 128.971868 -55.311544 
L 130.695822 -54.585997 
L 132.419775 -56.354829 
L 134.143729 -58.895357 
L 135.867682 -60.88836 
L 137.591636 -60.199482 
L 139.315589 -60.484784 
L 141.039543 -58.914976 
L 142.763496 -58.861861 
L 144.48745 -56.810234 
L 146.211403 -54.964825 
L 147.935357 -55.664732 
L 149.65931 -59.217036 
L 151.383264 -63.553446 
L 153.107217 -63.270305 
L 154.831171 -65.118282 
L 156.555124 -61.091216 
L 158.279077 -60.684498 
L 160.003031 -61.52624 
L 161.726984 -58.935929 
L 163.450938 -56.533409 
L 165.174891 -56.038132 
L 166.898845 -55.599482 
L 168.622798 -55.729451 
L 170.346752 -60.485396 
L 172.070705 -61.395038 
L 173.794659 -62.881447 
L 175.518612 -70.332311 
L 177.242566 -71.248358 
L 178.966519 -68.054782 
L 180.690473 -68.118367 
L 182.414426 -66.684426 
L 184.13838 -65.221957 
L 185.862333 -63.792002 
L 187.586287 -61.587722 
L 189.31024 -59.908669 
L 191.034193 -60.46698 
L 192.758147 -57.266502 
L 194.4821 -56.62789 
L 196.206054 -54.793242 
L 197.930007 -55.289738 
L 199.653961 -56.085324 
L 201.377914 -53.672465 
L 203.101868 -53.27539 
L 204.825821 -52.456902 
L 206.549775 -51.840486 
L 208.273728 -52.575565 
L 209.997682 -51.686614 
L 211.721635 -51.506536 
L 213.445589 -52.166118 
L 213.445589 -60.513579 
L 213.445589 -60.513579 
L 211.721635 -59.454713 
L 209.997682 -60.21421 
L 208.273728 -60.173674 
L 206.549775 -59.228274 
L 204.825821 -61.244987 
L 203.101868 -62.281696 
L 201.377914 -62.834716 
L 199.653961 -66.071463 
L 197.930007 -64.872835 
L 196.206054 -65.808472 
L 194.4821 -65.986244 
L 192.758147 -67.730594 
L 191.034193 -72.936846 
L 189.31024 -70.380904 
L 187.586287 -72.618167 
L 185.862333 -77.376476 
L 184.13838 -77.886956 
L 182.414426 -79.964558 
L 180.690473 -82.84864 
L 178.966519 -85.210982 
L 177.242566 -86.51458 
L 175.518612 -83.491133 
L 173.794659 -73.937143 
L 172.070705 -72.585589 
L 170.346752 -72.803774 
L 168.622798 -64.418122 
L 166.898845 -65.483383 
L 165.174891 -66.729311 
L 163.450938 -67.785548 
L 161.726984 -72.283414 
L 160.003031 -74.642518 
L 158.279077 -71.599681 
L 156.555124 -72.438952 
L 154.831171 -77.699384 
L 153.107217 -77.489505 
L 151.383264 -76.049719 
L 149.65931 -71.000189 
L 147.935357 -65.0703 
L 146.211403 -65.242967 
L 144.48745 -70.212565 
L 142.763496 -72.911747 
L 141.039543 -72.027531 
L 139.315589 -74.853454 
L 137.591636 -74.344564 
L 135.867682 -76.039332 
L 134.143729 -71.333042 
L 132.419775 -68.908584 
L 130.695822 -66.968967 
L 128.971868 -68.332677 
L 127.247915 -68.078143 
L 125.523961 -69.553611 
L 123.800008 -71.619404 
L 122.076055 -74.239188 
L 120.352101 -76.16991 
L 118.628148 -78.477463 
L 116.904194 -76.394902 
L 115.180241 -75.374548 
L 113.456287 -68.478836 
L 111.732334 -68.523466 
L 110.00838 -69.067744 
L 108.284427 -71.361698 
L 106.560473 -72.635119 
L 104.83652 -70.389261 
L 103.112566 -65.19553 
L 101.388613 -61.398433 
L 99.664659 -66.250455 
L 97.940706 -64.7525 
L 96.216752 -66.549355 
L 94.492799 -67.459037 
L 92.768845 -69.805321 
L 91.044892 -71.507309 
L 89.320938 -72.085674 
L 87.596985 -69.700526 
L 85.873032 -73.084495 
L 84.149078 -75.453113 
L 82.425125 -74.566915 
L 80.701171 -76.564076 
L 78.977218 -74.300199 
L 77.253264 -77.705258 
L 75.529311 -75.996602 
L 73.805357 -79.206429 
L 72.081404 -82.475966 
L 70.35745 -89.122123 
L 68.633497 -89.586604 
L 66.909543 -91.108235 
L 65.18559 -97.690374 
L 63.461636 -102.616965 
L 61.737683 -106.902538 
L 60.013729 -111.361705 
L 58.289776 -104.345304 
L 56.565822 -96.339544 
L 54.841869 -88.09546 
L 53.117916 -89.35457 
L 51.393962 -85.945158 
L 49.670009 -94.000285 
L 47.946055 -90.88367 
L 46.222102 -82.44831 
L 44.498148 -76.193756 
L 42.774195 -88.791174 
z
" style="stroke: #1f77b4; stroke-opacity: 0.2"/>
    </defs>
    <g clip-path="url(#pd6ac00a994)">
     <use xlink:href="#m89d9f80446" x="0" y="135.674687" style="fill: #1f77b4; fill-opacity: 0.2; stroke: #1f77b4; stroke-opacity: 0.2"/>
    </g>
   </g>
   <g id="matplotlib.axis_1">
    <g id="xtick_1">
     <g id="line2d_1">
      <defs>
       <path id="mdbe68d8dd9" d="M 0 0 
L 0 3.5 
" style="stroke: #000000; stroke-width: 0.8"/>
      </defs>
      <g>
       <use xlink:href="#mdbe68d8dd9" x="42.774195" y="98.118437" style="stroke: #000000; stroke-width: 0.8"/>
      </g>
     </g>
     <g id="text_1">
      <!-- 0 -->
      <g transform="translate(39.592945 112.716875) scale(0.1 -0.1)">
       <defs>
        <path id="DejaVuSans-30" d="M 2034 4250 
Q 1547 4250 1301 3770 
Q 1056 3291 1056 2328 
Q 1056 1369 1301 889 
Q 1547 409 2034 409 
Q 2525 409 2770 889 
Q 3016 1369 3016 2328 
Q 3016 3291 2770 3770 
Q 2525 4250 2034 4250 
z
M 2034 4750 
Q 2819 4750 3233 4129 
Q 3647 3509 3647 2328 
Q 3647 1150 3233 529 
Q 2819 -91 2034 -91 
Q 1250 -91 836 529 
Q 422 1150 422 2328 
Q 422 3509 836 4129 
Q 1250 4750 2034 4750 
z
" transform="scale(0.015625)"/>
       </defs>
       <use xlink:href="#DejaVuSans-30"/>
      </g>
     </g>
    </g>
    <g id="xtick_2">
     <g id="line2d_2">
      <g>
       <use xlink:href="#mdbe68d8dd9" x="77.253264" y="98.118437" style="stroke: #000000; stroke-width: 0.8"/>
      </g>
     </g>
     <g id="text_2">
      <!-- 2 -->
      <g transform="translate(74.072014 112.716875) scale(0.1 -0.1)">
       <defs>
        <path id="DejaVuSans-32" d="M 1228 531 
L 3431 531 
L 3431 0 
L 469 0 
L 469 531 
Q 828 903 1448 1529 
Q 2069 2156 2228 2338 
Q 2531 2678 2651 2914 
Q 2772 3150 2772 3378 
Q 2772 3750 2511 3984 
Q 2250 4219 1831 4219 
Q 1534 4219 1204 4116 
Q 875 4013 500 3803 
L 500 4441 
Q 881 4594 1212 4672 
Q 1544 4750 1819 4750 
Q 2544 4750 2975 4387 
Q 3406 4025 3406 3419 
Q 3406 3131 3298 2873 
Q 3191 2616 2906 2266 
Q 2828 2175 2409 1742 
Q 1991 1309 1228 531 
z
" transform="scale(0.015625)"/>
       </defs>
       <use xlink:href="#DejaVuSans-32"/>
      </g>
     </g>
    </g>
    <g id="xtick_3">
     <g id="line2d_3">
      <g>
       <use xlink:href="#mdbe68d8dd9" x="111.732334" y="98.118437" style="stroke: #000000; stroke-width: 0.8"/>
      </g>
     </g>
     <g id="text_3">
      <!-- 4 -->
      <g transform="translate(108.551084 112.716875) scale(0.1 -0.1)">
       <defs>
        <path id="DejaVuSans-34" d="M 2419 4116 
L 825 1625 
L 2419 1625 
L 2419 4116 
z
M 2253 4666 
L 3047 4666 
L 3047 1625 
L 3713 1625 
L 3713 1100 
L 3047 1100 
L 3047 0 
L 2419 0 
L 2419 1100 
L 313 1100 
L 313 1709 
L 2253 4666 
z
" transform="scale(0.015625)"/>
       </defs>
       <use xlink:href="#DejaVuSans-34"/>
      </g>
     </g>
    </g>
    <g id="xtick_4">
     <g id="line2d_4">
      <g>
       <use xlink:href="#mdbe68d8dd9" x="146.211403" y="98.118437" style="stroke: #000000; stroke-width: 0.8"/>
      </g>
     </g>
     <g id="text_4">
      <!-- 6 -->
      <g transform="translate(143.030153 112.716875) scale(0.1 -0.1)">
       <defs>
        <path id="DejaVuSans-36" d="M 2113 2584 
Q 1688 2584 1439 2293 
Q 1191 2003 1191 1497 
Q 1191 994 1439 701 
Q 1688 409 2113 409 
Q 2538 409 2786 701 
Q 3034 994 3034 1497 
Q 3034 2003 2786 2293 
Q 2538 2584 2113 2584 
z
M 3366 4563 
L 3366 3988 
Q 3128 4100 2886 4159 
Q 2644 4219 2406 4219 
Q 1781 4219 1451 3797 
Q 1122 3375 1075 2522 
Q 1259 2794 1537 2939 
Q 1816 3084 2150 3084 
Q 2853 3084 3261 2657 
Q 3669 2231 3669 1497 
Q 3669 778 3244 343 
Q 2819 -91 2113 -91 
Q 1303 -91 875 529 
Q 447 1150 447 2328 
Q 447 3434 972 4092 
Q 1497 4750 2381 4750 
Q 2619 4750 2861 4703 
Q 3103 4656 3366 4563 
z
" transform="scale(0.015625)"/>
       </defs>
       <use xlink:href="#DejaVuSans-36"/>
      </g>
     </g>
    </g>
    <g id="xtick_5">
     <g id="line2d_5">
      <g>
       <use xlink:href="#mdbe68d8dd9" x="180.690473" y="98.118437" style="stroke: #000000; stroke-width: 0.8"/>
      </g>
     </g>
     <g id="text_5">
      <!-- 8 -->
      <g transform="translate(177.509223 112.716875) scale(0.1 -0.1)">
       <defs>
        <path id="DejaVuSans-38" d="M 2034 2216 
Q 1584 2216 1326 1975 
Q 1069 1734 1069 1313 
Q 1069 891 1326 650 
Q 1584 409 2034 409 
Q 2484 409 2743 651 
Q 3003 894 3003 1313 
Q 3003 1734 2745 1975 
Q 2488 2216 2034 2216 
z
M 1403 2484 
Q 997 2584 770 2862 
Q 544 3141 544 3541 
Q 544 4100 942 4425 
Q 1341 4750 2034 4750 
Q 2731 4750 3128 4425 
Q 3525 4100 3525 3541 
Q 3525 3141 3298 2862 
Q 3072 2584 2669 2484 
Q 3125 2378 3379 2068 
Q 3634 1759 3634 1313 
Q 3634 634 3220 271 
Q 2806 -91 2034 -91 
Q 1263 -91 848 271 
Q 434 634 434 1313 
Q 434 1759 690 2068 
Q 947 2378 1403 2484 
z
M 1172 3481 
Q 1172 3119 1398 2916 
Q 1625 2713 2034 2713 
Q 2441 2713 2670 2916 
Q 2900 3119 2900 3481 
Q 2900 3844 2670 4047 
Q 2441 4250 2034 4250 
Q 1625 4250 1398 4047 
Q 1172 3844 1172 3481 
z
" transform="scale(0.015625)"/>
       </defs>
       <use xlink:href="#DejaVuSans-38"/>
      </g>
     </g>
    </g>
    <g id="xtick_6">
     <g id="line2d_6">
      <g>
       <use xlink:href="#mdbe68d8dd9" x="215.169542" y="98.118437" style="stroke: #000000; stroke-width: 0.8"/>
      </g>
     </g>
     <g id="text_6">
      <!-- 10 -->
      <g transform="translate(208.807042 112.716875) scale(0.1 -0.1)">
       <defs>
        <path id="DejaVuSans-31" d="M 794 531 
L 1825 531 
L 1825 4091 
L 703 3866 
L 703 4441 
L 1819 4666 
L 2450 4666 
L 2450 531 
L 3481 531 
L 3481 0 
L 794 0 
L 794 531 
z
" transform="scale(0.015625)"/>
       </defs>
       <use xlink:href="#DejaVuSans-31"/>
       <use xlink:href="#DejaVuSans-30" x="63.623047"/>
      </g>
     </g>
    </g>
    <g id="text_7">
     <!-- time -->
     <g transform="translate(116.813798 126.395) scale(0.1 -0.1)">
      <defs>
       <path id="DejaVuSans-74" d="M 1172 4494 
L 1172 3500 
L 2356 3500 
L 2356 3053 
L 1172 3053 
L 1172 1153 
Q 1172 725 1289 603 
Q 1406 481 1766 481 
L 2356 481 
L 2356 0 
L 1766 0 
Q 1100 0 847 248 
Q 594 497 594 1153 
L 594 3053 
L 172 3053 
L 172 3500 
L 594 3500 
L 594 4494 
L 1172 4494 
z
" transform="scale(0.015625)"/>
       <path id="DejaVuSans-69" d="M 603 3500 
L 1178 3500 
L 1178 0 
L 603 0 
L 603 3500 
z
M 603 4863 
L 1178 4863 
L 1178 4134 
L 603 4134 
L 603 4863 
z
" transform="scale(0.015625)"/>
       <path id="DejaVuSans-6d" d="M 3328 2828 
Q 3544 3216 3844 3400 
Q 4144 3584 4550 3584 
Q 5097 3584 5394 3201 
Q 5691 2819 5691 2113 
L 5691 0 
L 5113 0 
L 5113 2094 
Q 5113 2597 4934 2840 
Q 4756 3084 4391 3084 
Q 3944 3084 3684 2787 
Q 3425 2491 3425 1978 
L 3425 0 
L 2847 0 
L 2847 2094 
Q 2847 2600 2669 2842 
Q 2491 3084 2119 3084 
Q 1678 3084 1418 2786 
Q 1159 2488 1159 1978 
L 1159 0 
L 581 0 
L 581 3500 
L 1159 3500 
L 1159 2956 
Q 1356 3278 1631 3431 
Q 1906 3584 2284 3584 
Q 2666 3584 2933 3390 
Q 3200 3197 3328 2828 
z
" transform="scale(0.015625)"/>
       <path id="DejaVuSans-65" d="M 3597 1894 
L 3597 1613 
L 953 1613 
Q 991 1019 1311 708 
Q 1631 397 2203 397 
Q 2534 397 2845 478 
Q 3156 559 3463 722 
L 3463 178 
Q 3153 47 2828 -22 
Q 2503 -91 2169 -91 
Q 1331 -91 842 396 
Q 353 884 353 1716 
Q 353 2575 817 3079 
Q 1281 3584 2069 3584 
Q 2775 3584 3186 3129 
Q 3597 2675 3597 1894 
z
M 3022 2063 
Q 3016 2534 2758 2815 
Q 2500 3097 2075 3097 
Q 1594 3097 1305 2825 
Q 1016 2553 972 2059 
L 3022 2063 
z
" transform="scale(0.015625)"/>
      </defs>
      <use xlink:href="#DejaVuSans-74"/>
      <use xlink:href="#DejaVuSans-69" x="39.208984"/>
      <use xlink:href="#DejaVuSans-6d" x="66.992188"/>
      <use xlink:href="#DejaVuSans-65" x="164.404297"/>
     </g>
    </g>
   </g>
   <g id="matplotlib.axis_2">
    <g id="ytick_1">
     <g id="line2d_7">
      <defs>
       <path id="mf490d29864" d="M 0 0 
L -3.5 0 
" style="stroke: #000000; stroke-width: 0.8"/>
      </defs>
      <g>
       <use xlink:href="#mf490d29864" x="34.240625" y="72.798376" style="stroke: #000000; stroke-width: 0.8"/>
      </g>
     </g>
     <g id="text_8">
      <!-- 1 -->
      <g transform="translate(20.878125 76.597595) scale(0.1 -0.1)">
       <use xlink:href="#DejaVuSans-31"/>
      </g>
     </g>
    </g>
    <g id="ytick_2">
     <g id="line2d_8">
      <g>
       <use xlink:href="#mf490d29864" x="34.240625" y="32.683779" style="stroke: #000000; stroke-width: 0.8"/>
      </g>
     </g>
     <g id="text_9">
      <!-- 2 -->
      <g transform="translate(20.878125 36.482998) scale(0.1 -0.1)">
       <use xlink:href="#DejaVuSans-32"/>
      </g>
     </g>
    </g>
    <g id="text_10">
     <!-- DFF -->
     <g transform="translate(14.798438 69.06) rotate(-90) scale(0.1 -0.1)">
      <defs>
       <path id="DejaVuSans-44" d="M 1259 4147 
L 1259 519 
L 2022 519 
Q 2988 519 3436 956 
Q 3884 1394 3884 2338 
Q 3884 3275 3436 3711 
Q 2988 4147 2022 4147 
L 1259 4147 
z
M 628 4666 
L 1925 4666 
Q 3281 4666 3915 4102 
Q 4550 3538 4550 2338 
Q 4550 1131 3912 565 
Q 3275 0 1925 0 
L 628 0 
L 628 4666 
z
" transform="scale(0.015625)"/>
       <path id="DejaVuSans-46" d="M 628 4666 
L 3309 4666 
L 3309 4134 
L 1259 4134 
L 1259 2759 
L 3109 2759 
L 3109 2228 
L 1259 2228 
L 1259 0 
L 628 0 
L 628 4666 
z
" transform="scale(0.015625)"/>
      </defs>
      <use xlink:href="#DejaVuSans-44"/>
      <use xlink:href="#DejaVuSans-46" x="77.001953"/>
      <use xlink:href="#DejaVuSans-46" x="134.521484"/>
     </g>
    </g>
   </g>
   <g id="line2d_9">
    <path d="M 42.774195 74.033668 
L 44.498148 69.947913 
L 46.222102 62.635087 
L 47.946055 71.097736 
L 49.670009 67.326609 
L 51.393962 71.56585 
L 53.117916 71.66384 
L 54.841869 71.900244 
L 56.565822 74.02694 
L 58.289776 73.337559 
L 60.013729 74.196434 
L 61.737683 76.378336 
L 63.461636 75.452665 
L 65.18559 74.432434 
L 66.909543 78.525966 
L 68.633497 77.695083 
L 70.35745 78.518176 
L 72.081404 78.743325 
L 73.805357 78.140842 
L 75.529311 79.07692 
L 77.253264 79.026859 
L 78.977218 80.327788 
L 80.701171 84.15808 
L 82.425125 85.513435 
L 84.149078 81.99624 
L 85.873032 80.342251 
L 87.596985 77.468541 
L 89.320938 75.263449 
L 91.044892 74.95207 
L 92.768845 75.481603 
L 94.492799 74.421424 
L 96.216752 77.713975 
L 97.940706 79.125893 
L 99.664659 79.671316 
L 101.388613 78.92908 
L 103.112566 78.388359 
L 104.83652 80.930284 
L 106.560473 78.747725 
L 108.284427 78.356121 
L 110.00838 78.881698 
L 111.732334 78.4182 
L 113.456287 73.694088 
L 115.180241 69.245318 
L 116.904194 70.730474 
L 118.628148 69.520335 
L 120.352101 70.476835 
L 122.076055 71.981998 
L 123.800008 72.962003 
L 125.523961 74.527715 
L 127.247915 76.151379 
L 128.971868 72.731344 
L 130.695822 69.567146 
L 132.419775 67.056697 
L 134.143729 67.316729 
L 135.867682 68.567369 
L 137.591636 68.985487 
L 139.315589 71.573872 
L 141.039543 72.774497 
L 142.763496 74.676506 
L 144.48745 74.697726 
L 146.211403 75.463614 
L 147.935357 75.37589 
L 149.65931 75.759806 
L 151.383264 76.311612 
L 153.107217 78.281117 
L 154.831171 78.746699 
L 156.555124 80.964792 
L 158.279077 81.315288 
L 160.003031 80.966656 
L 161.726984 79.054488 
L 163.450938 73.522191 
L 165.174891 69.095005 
L 166.898845 68.864849 
L 168.622798 67.07359 
L 170.346752 69.953228 
L 172.070705 72.358473 
L 173.794659 72.848329 
L 175.518612 74.366091 
L 177.242566 75.297081 
L 178.966519 75.631217 
L 180.690473 80.266153 
L 182.414426 80.637168 
L 184.13838 80.171615 
L 185.862333 78.986807 
L 187.586287 77.160147 
L 189.31024 73.05605 
L 191.034193 71.239597 
L 192.758147 72.713496 
L 194.4821 74.040724 
L 196.206054 75.542144 
L 197.930007 77.130131 
L 199.653961 76.58492 
L 201.377914 79.254405 
L 203.101868 73.324092 
L 204.825821 72.242069 
L 206.549775 69.596568 
L 208.273728 73.105598 
L 209.997682 73.599327 
L 211.721635 73.87774 
L 213.445589 74.350463 
" clip-path="url(#pd6ac00a994)" style="fill: none; stroke: #1f77b4; stroke-width: 1.5; stroke-linecap: square"/>
   </g>
   <g id="line2d_10">
    <path d="M 42.774195 67.689521 
L 44.498148 69.997651 
L 46.222102 60.858522 
L 47.946055 53.552701 
L 49.670009 49.313881 
L 51.393962 56.012556 
L 53.117916 54.101538 
L 54.841869 55.633899 
L 56.565822 46.87493 
L 58.289776 41.792359 
L 60.013729 35.557523 
L 61.737683 39.355402 
L 63.461636 42.753898 
L 65.18559 46.755579 
L 66.909543 52.660575 
L 68.633497 54.339907 
L 70.35745 54.435843 
L 72.081404 60.406795 
L 73.805357 63.006019 
L 75.529311 65.445607 
L 77.253264 64.898555 
L 78.977218 67.613487 
L 80.701171 67.687064 
L 82.425125 69.197538 
L 84.149078 68.404211 
L 85.873032 70.485495 
L 87.596985 71.716472 
L 89.320938 69.984182 
L 91.044892 70.511503 
L 92.768845 71.244296 
L 94.492799 73.484773 
L 96.216752 74.096173 
L 97.940706 75.709397 
L 99.664659 74.990347 
L 101.388613 78.981024 
L 103.112566 75.514954 
L 104.83652 71.132329 
L 106.560473 69.040011 
L 108.284427 70.241767 
L 110.00838 72.550488 
L 111.732334 73.368323 
L 113.456287 73.17853 
L 115.180241 67.213916 
L 116.904194 66.417504 
L 118.628148 64.963677 
L 120.352101 66.494135 
L 122.076055 68.526 
L 123.800008 71.115011 
L 125.523961 73.175538 
L 127.247915 73.621989 
L 128.971868 73.885555 
L 130.695822 75.101243 
L 132.419775 73.155994 
L 134.143729 70.495428 
L 135.867682 67.412063 
L 137.591636 68.607083 
L 139.315589 68.223253 
L 141.039543 69.828199 
L 142.763496 69.729181 
L 144.48745 71.956397 
L 146.211403 75.37383 
L 147.935357 75.354012 
L 149.65931 70.649321 
L 151.383264 66.057588 
L 153.107217 65.750326 
L 154.831171 64.215797 
L 156.555124 68.705473 
L 158.279077 69.587525 
L 160.003031 67.96409 
L 161.726984 70.673157 
L 163.450938 73.481868 
L 165.174891 74.67596 
L 166.898845 75.09828 
L 168.622798 75.532277 
L 170.346752 68.844074 
L 172.070705 68.596605 
L 173.794659 67.175662 
L 175.518612 58.741378 
L 177.242566 56.595042 
L 178.966519 58.544382 
L 180.690473 60.076095 
L 182.414426 62.196544 
L 184.13838 64.232849 
L 185.862333 65.392185 
L 187.586287 68.554658 
L 189.31024 70.51767 
L 191.034193 69.168075 
L 192.758147 72.982621 
L 194.4821 74.327033 
L 196.206054 75.528901 
L 197.930007 75.743027 
L 199.653961 74.821445 
L 201.377914 77.748317 
L 203.101868 77.851701 
L 204.825821 78.673141 
L 206.549775 80.188261 
L 208.273728 79.179894 
L 209.997682 79.791092 
L 211.721635 80.329746 
L 213.445589 79.35846 
" clip-path="url(#pd6ac00a994)" style="fill: none; stroke-dasharray: 6,2.25; stroke-dashoffset: 0; stroke: #1f77b4; stroke-width: 1.5"/>
   </g>
   <g id="line2d_11"/>
   <g id="line2d_12"/>
   <g id="line2d_13">
    <path d="M 77.253264 98.118437 
L 77.253264 20.798437 
" clip-path="url(#pd6ac00a994)" style="fill: none; stroke-dasharray: 5.55,2.4; stroke-dashoffset: 0; stroke: #808080; stroke-width: 1.5"/>
   </g>
   <g id="patch_3">
    <path d="M 34.240625 98.118437 
L 34.240625 20.798437 
" style="fill: none; stroke: #000000; stroke-width: 0.8; stroke-linejoin: miter; stroke-linecap: square"/>
   </g>
   <g id="patch_4">
    <path d="M 34.240625 98.118437 
L 221.979158 98.118437 
" style="fill: none; stroke: #000000; stroke-width: 0.8; stroke-linejoin: miter; stroke-linecap: square"/>
   </g>
   <g id="text_11">
    <!-- trial_type = airpuff -->
    <g transform="translate(80.841923 14.798437) scale(0.1 -0.1)">
     <defs>
      <path id="DejaVuSans-72" d="M 2631 2963 
Q 2534 3019 2420 3045 
Q 2306 3072 2169 3072 
Q 1681 3072 1420 2755 
Q 1159 2438 1159 1844 
L 1159 0 
L 581 0 
L 581 3500 
L 1159 3500 
L 1159 2956 
Q 1341 3275 1631 3429 
Q 1922 3584 2338 3584 
Q 2397 3584 2469 3576 
Q 2541 3569 2628 3553 
L 2631 2963 
z
" transform="scale(0.015625)"/>
      <path id="DejaVuSans-61" d="M 2194 1759 
Q 1497 1759 1228 1600 
Q 959 1441 959 1056 
Q 959 750 1161 570 
Q 1363 391 1709 391 
Q 2188 391 2477 730 
Q 2766 1069 2766 1631 
L 2766 1759 
L 2194 1759 
z
M 3341 1997 
L 3341 0 
L 2766 0 
L 2766 531 
Q 2569 213 2275 61 
Q 1981 -91 1556 -91 
Q 1019 -91 701 211 
Q 384 513 384 1019 
Q 384 1609 779 1909 
Q 1175 2209 1959 2209 
L 2766 2209 
L 2766 2266 
Q 2766 2663 2505 2880 
Q 2244 3097 1772 3097 
Q 1472 3097 1187 3025 
Q 903 2953 641 2809 
L 641 3341 
Q 956 3463 1253 3523 
Q 1550 3584 1831 3584 
Q 2591 3584 2966 3190 
Q 3341 2797 3341 1997 
z
" transform="scale(0.015625)"/>
      <path id="DejaVuSans-6c" d="M 603 4863 
L 1178 4863 
L 1178 0 
L 603 0 
L 603 4863 
z
" transform="scale(0.015625)"/>
      <path id="DejaVuSans-5f" d="M 3263 -1063 
L 3263 -1509 
L -63 -1509 
L -63 -1063 
L 3263 -1063 
z
" transform="scale(0.015625)"/>
      <path id="DejaVuSans-79" d="M 2059 -325 
Q 1816 -950 1584 -1140 
Q 1353 -1331 966 -1331 
L 506 -1331 
L 506 -850 
L 844 -850 
Q 1081 -850 1212 -737 
Q 1344 -625 1503 -206 
L 1606 56 
L 191 3500 
L 800 3500 
L 1894 763 
L 2988 3500 
L 3597 3500 
L 2059 -325 
z
" transform="scale(0.015625)"/>
      <path id="DejaVuSans-70" d="M 1159 525 
L 1159 -1331 
L 581 -1331 
L 581 3500 
L 1159 3500 
L 1159 2969 
Q 1341 3281 1617 3432 
Q 1894 3584 2278 3584 
Q 2916 3584 3314 3078 
Q 3713 2572 3713 1747 
Q 3713 922 3314 415 
Q 2916 -91 2278 -91 
Q 1894 -91 1617 61 
Q 1341 213 1159 525 
z
M 3116 1747 
Q 3116 2381 2855 2742 
Q 2594 3103 2138 3103 
Q 1681 3103 1420 2742 
Q 1159 2381 1159 1747 
Q 1159 1113 1420 752 
Q 1681 391 2138 391 
Q 2594 391 2855 752 
Q 3116 1113 3116 1747 
z
" transform="scale(0.015625)"/>
      <path id="DejaVuSans-20" transform="scale(0.015625)"/>
      <path id="DejaVuSans-3d" d="M 678 2906 
L 4684 2906 
L 4684 2381 
L 678 2381 
L 678 2906 
z
M 678 1631 
L 4684 1631 
L 4684 1100 
L 678 1100 
L 678 1631 
z
" transform="scale(0.015625)"/>
      <path id="DejaVuSans-75" d="M 544 1381 
L 544 3500 
L 1119 3500 
L 1119 1403 
Q 1119 906 1312 657 
Q 1506 409 1894 409 
Q 2359 409 2629 706 
Q 2900 1003 2900 1516 
L 2900 3500 
L 3475 3500 
L 3475 0 
L 2900 0 
L 2900 538 
Q 2691 219 2414 64 
Q 2138 -91 1772 -91 
Q 1169 -91 856 284 
Q 544 659 544 1381 
z
M 1991 3584 
L 1991 3584 
z
" transform="scale(0.015625)"/>
      <path id="DejaVuSans-66" d="M 2375 4863 
L 2375 4384 
L 1825 4384 
Q 1516 4384 1395 4259 
Q 1275 4134 1275 3809 
L 1275 3500 
L 2222 3500 
L 2222 3053 
L 1275 3053 
L 1275 0 
L 697 0 
L 697 3053 
L 147 3053 
L 147 3500 
L 697 3500 
L 697 3744 
Q 697 4328 969 4595 
Q 1241 4863 1831 4863 
L 2375 4863 
z
" transform="scale(0.015625)"/>
     </defs>
     <use xlink:href="#DejaVuSans-74"/>
     <use xlink:href="#DejaVuSans-72" x="39.208984"/>
     <use xlink:href="#DejaVuSans-69" x="80.322266"/>
     <use xlink:href="#DejaVuSans-61" x="108.105469"/>
     <use xlink:href="#DejaVuSans-6c" x="169.384766"/>
     <use xlink:href="#DejaVuSans-5f" x="197.167969"/>
     <use xlink:href="#DejaVuSans-74" x="247.167969"/>
     <use xlink:href="#DejaVuSans-79" x="286.376953"/>
     <use xlink:href="#DejaVuSans-70" x="345.556641"/>
     <use xlink:href="#DejaVuSans-65" x="409.033203"/>
     <use xlink:href="#DejaVuSans-20" x="470.556641"/>
     <use xlink:href="#DejaVuSans-3d" x="502.34375"/>
     <use xlink:href="#DejaVuSans-20" x="586.132812"/>
     <use xlink:href="#DejaVuSans-61" x="617.919922"/>
     <use xlink:href="#DejaVuSans-69" x="679.199219"/>
     <use xlink:href="#DejaVuSans-72" x="706.982422"/>
     <use xlink:href="#DejaVuSans-70" x="748.095703"/>
     <use xlink:href="#DejaVuSans-75" x="811.572266"/>
     <use xlink:href="#DejaVuSans-66" x="874.951172"/>
     <use xlink:href="#DejaVuSans-66" x="910.15625"/>
    </g>
   </g>
  </g>
  <g id="axes_2">
   <g id="patch_5">
    <path d="M 236.279158 98.118437 
L 424.017692 98.118437 
L 424.017692 20.798437 
L 236.279158 20.798437 
z
" style="fill: #ffffff"/>
   </g>
   <g id="PolyCollection_3">
    <defs>
     <path id="m995d390ef4" d="M 244.812728 -74.873111 
L 244.812728 -50.668411 
L 246.536682 -57.527022 
L 248.260635 -66.843685 
L 249.984588 -60.181842 
L 251.708542 -66.301493 
L 253.432495 -61.362412 
L 255.156449 -61.780402 
L 256.880402 -61.518278 
L 258.604356 -59.576304 
L 260.328309 -59.125515 
L 262.052263 -58.914962 
L 263.776216 -57.166312 
L 265.50017 -56.473342 
L 267.224123 -55.542136 
L 268.948077 -55.568348 
L 270.67203 -59.908506 
L 272.395984 -63.560672 
L 274.119937 -63.670628 
L 275.843891 -61.786591 
L 277.567844 -59.027266 
L 279.291798 -64.746042 
L 281.015751 -65.179543 
L 282.739704 -62.177324 
L 284.463658 -62.614732 
L 286.187611 -60.664251 
L 287.911565 -58.788429 
L 289.635518 -63.332143 
L 291.359472 -63.669001 
L 293.083425 -66.502784 
L 294.807379 -67.024926 
L 296.531332 -66.830978 
L 298.255286 -63.624352 
L 299.979239 -61.830812 
L 301.703193 -60.658618 
L 303.427146 -58.698015 
L 305.1511 -59.645425 
L 306.875053 -56.777464 
L 308.599007 -58.022912 
L 310.32296 -55.614091 
L 312.046914 -54.133806 
L 313.770867 -53.466137 
L 315.49482 -55.321073 
L 317.218774 -54.739011 
L 318.942727 -52.520796 
L 320.666681 -51.724192 
L 322.390634 -51.981975 
L 324.114588 -52.140049 
L 325.838541 -55.487422 
L 327.562495 -58.284991 
L 329.286448 -60.931588 
L 331.010402 -61.908128 
L 332.734355 -58.347913 
L 334.458309 -58.933936 
L 336.182262 -57.631737 
L 337.906216 -56.629672 
L 339.630169 -55.644895 
L 341.354123 -55.647919 
L 343.078076 -56.856019 
L 344.80203 -59.10577 
L 346.525983 -61.836383 
L 348.249936 -62.141975 
L 349.97389 -66.179851 
L 351.697843 -67.63458 
L 353.421797 -68.782444 
L 355.14575 -67.293209 
L 356.869704 -67.741465 
L 358.593657 -63.906931 
L 360.317611 -62.809896 
L 362.041564 -62.406004 
L 363.765518 -62.379478 
L 365.489471 -60.358258 
L 367.213425 -58.318014 
L 368.937378 -60.174734 
L 370.661332 -57.852777 
L 372.385285 -57.369841 
L 374.109239 -57.791192 
L 375.833192 -55.438272 
L 377.557146 -55.576868 
L 379.281099 -53.645334 
L 381.005052 -54.808253 
L 382.729006 -53.7465 
L 384.452959 -53.848603 
L 386.176913 -52.297867 
L 387.900866 -53.170688 
L 389.62482 -52.411551 
L 391.348773 -52.41846 
L 393.072727 -52.859551 
L 394.79668 -54.460109 
L 396.520634 -52.849942 
L 398.244587 -52.937562 
L 399.968541 -53.099904 
L 401.692494 -50.440217 
L 403.416448 -51.018752 
L 405.140401 -52.392778 
L 406.864355 -51.488988 
L 408.588308 -50.419772 
L 410.312262 -49.164413 
L 412.036215 -51.01199 
L 413.760168 -50.324873 
L 415.484122 -50.036074 
L 415.484122 -57.210552 
L 415.484122 -57.210552 
L 413.760168 -57.940635 
L 412.036215 -57.344395 
L 410.312262 -56.708874 
L 408.588308 -58.684765 
L 406.864355 -58.61068 
L 405.140401 -61.596269 
L 403.416448 -57.388263 
L 401.692494 -57.005903 
L 399.968541 -59.791037 
L 398.244587 -61.112823 
L 396.520634 -60.648836 
L 394.79668 -62.015956 
L 393.072727 -59.870995 
L 391.348773 -58.858352 
L 389.62482 -59.754016 
L 387.900866 -61.195789 
L 386.176913 -58.711736 
L 384.452959 -60.470646 
L 382.729006 -60.740986 
L 381.005052 -61.97598 
L 379.281099 -60.961346 
L 377.557146 -63.018751 
L 375.833192 -64.779613 
L 374.109239 -67.863164 
L 372.385285 -65.729259 
L 370.661332 -64.920457 
L 368.937378 -68.988699 
L 367.213425 -66.641736 
L 365.489471 -68.782698 
L 363.765518 -71.930605 
L 362.041564 -72.082175 
L 360.317611 -72.867301 
L 358.593657 -76.34253 
L 356.869704 -79.253204 
L 355.14575 -80.295705 
L 353.421797 -82.924314 
L 351.697843 -76.99922 
L 349.97389 -77.44209 
L 348.249936 -72.388632 
L 346.525983 -71.299802 
L 344.80203 -66.646077 
L 343.078076 -64.594313 
L 341.354123 -65.211703 
L 339.630169 -64.68535 
L 337.906216 -63.583342 
L 336.182262 -65.886142 
L 334.458309 -68.959022 
L 332.734355 -66.824772 
L 331.010402 -71.89411 
L 329.286448 -70.04391 
L 327.562495 -67.171576 
L 325.838541 -64.912716 
L 324.114588 -61.250062 
L 322.390634 -58.810452 
L 320.666681 -59.244354 
L 318.942727 -59.992 
L 317.218774 -63.28954 
L 315.49482 -66.177009 
L 313.770867 -61.452482 
L 312.046914 -62.178566 
L 310.32296 -63.069654 
L 308.599007 -68.298633 
L 306.875053 -64.99788 
L 305.1511 -69.400868 
L 303.427146 -68.007246 
L 301.703193 -71.897973 
L 299.979239 -70.661676 
L 298.255286 -74.570256 
L 296.531332 -76.153559 
L 294.807379 -77.764945 
L 293.083425 -76.600329 
L 291.359472 -71.902452 
L 289.635518 -70.487858 
L 287.911565 -66.918496 
L 286.187611 -71.362206 
L 284.463658 -72.869774 
L 282.739704 -71.828003 
L 281.015751 -76.348369 
L 279.291798 -75.69107 
L 277.567844 -68.235756 
L 275.843891 -69.890921 
L 274.119937 -73.4031 
L 272.395984 -73.68893 
L 270.67203 -68.729938 
L 268.948077 -64.069239 
L 267.224123 -63.987224 
L 265.50017 -66.259555 
L 263.776216 -65.475002 
L 262.052263 -68.444232 
L 260.328309 -69.109662 
L 258.604356 -69.727186 
L 256.880402 -69.78359 
L 255.156449 -72.505595 
L 253.432495 -69.701073 
L 251.708542 -78.271077 
L 249.984588 -73.542351 
L 248.260635 -90.302574 
L 246.536682 -78.378571 
L 244.812728 -74.873111 
z
" style="stroke: #1f77b4; stroke-opacity: 0.2"/>
    </defs>
    <g clip-path="url(#p84202ae71a)">
     <use xlink:href="#m995d390ef4" x="0" y="135.674687" style="fill: #1f77b4; fill-opacity: 0.2; stroke: #1f77b4; stroke-opacity: 0.2"/>
    </g>
   </g>
   <g id="PolyCollection_4">
    <defs>
     <path id="m22d9f3a04b" d="M 244.812728 -64.912965 
L 244.812728 -41.070795 
L 246.536682 -46.033607 
L 248.260635 -54.114181 
L 249.984588 -51.402143 
L 251.708542 -54.586201 
L 253.432495 -53.46523 
L 255.156449 -58.364867 
L 256.880402 -60.376927 
L 258.604356 -63.025984 
L 260.328309 -63.054067 
L 262.052263 -60.774974 
L 263.776216 -58.967678 
L 265.50017 -59.548333 
L 267.224123 -57.238894 
L 268.948077 -58.562742 
L 270.67203 -58.37475 
L 272.395984 -56.829535 
L 274.119937 -55.109549 
L 275.843891 -56.092241 
L 277.567844 -60.207813 
L 279.291798 -62.665897 
L 281.015751 -64.812325 
L 282.739704 -66.412851 
L 284.463658 -62.226821 
L 286.187611 -63.033639 
L 287.911565 -59.810635 
L 289.635518 -60.717081 
L 291.359472 -58.158463 
L 293.083425 -57.456914 
L 294.807379 -55.571949 
L 296.531332 -55.768797 
L 298.255286 -54.791381 
L 299.979239 -60.299662 
L 301.703193 -62.074491 
L 303.427146 -64.207618 
L 305.1511 -62.605581 
L 306.875053 -62.004423 
L 308.599007 -59.967779 
L 310.32296 -59.896874 
L 312.046914 -60.92505 
L 313.770867 -65.508203 
L 315.49482 -65.775838 
L 317.218774 -66.195568 
L 318.942727 -67.662133 
L 320.666681 -65.942722 
L 322.390634 -64.788627 
L 324.114588 -61.284502 
L 325.838541 -60.4017 
L 327.562495 -58.402289 
L 329.286448 -57.888652 
L 331.010402 -55.552519 
L 332.734355 -57.638657 
L 334.458309 -61.006819 
L 336.182262 -63.140525 
L 337.906216 -61.462822 
L 339.630169 -60.331635 
L 341.354123 -58.831317 
L 343.078076 -58.859461 
L 344.80203 -56.522847 
L 346.525983 -54.886317 
L 348.249936 -54.706634 
L 349.97389 -54.414158 
L 351.697843 -60.013379 
L 353.421797 -66.529072 
L 355.14575 -71.636791 
L 356.869704 -71.583495 
L 358.593657 -71.175705 
L 360.317611 -67.146395 
L 362.041564 -66.677179 
L 363.765518 -64.590638 
L 365.489471 -61.713761 
L 367.213425 -60.19162 
L 368.937378 -60.658868 
L 370.661332 -59.976177 
L 372.385285 -58.667486 
L 374.109239 -57.309282 
L 375.833192 -55.370822 
L 377.557146 -54.201876 
L 379.281099 -54.935713 
L 381.005052 -53.144183 
L 382.729006 -52.408114 
L 384.452959 -52.288997 
L 386.176913 -51.043227 
L 387.900866 -52.772955 
L 389.62482 -51.156395 
L 391.348773 -51.020847 
L 393.072727 -50.590485 
L 394.79668 -50.596142 
L 396.520634 -49.939934 
L 398.244587 -50.343728 
L 399.968541 -49.740298 
L 401.692494 -49.768469 
L 403.416448 -50.219139 
L 405.140401 -49.012357 
L 406.864355 -49.68864 
L 408.588308 -52.718334 
L 410.312262 -52.803099 
L 412.036215 -51.997127 
L 413.760168 -51.079738 
L 415.484122 -52.083285 
L 415.484122 -60.775139 
L 415.484122 -60.775139 
L 413.760168 -58.099593 
L 412.036215 -60.570534 
L 410.312262 -61.642288 
L 408.588308 -60.911104 
L 406.864355 -58.638129 
L 405.140401 -58.614333 
L 403.416448 -59.531935 
L 401.692494 -58.496588 
L 399.968541 -57.248896 
L 398.244587 -58.088316 
L 396.520634 -56.507961 
L 394.79668 -58.369784 
L 393.072727 -56.765653 
L 391.348773 -59.355453 
L 389.62482 -60.205617 
L 387.900866 -63.301135 
L 386.176913 -60.215945 
L 384.452959 -60.710201 
L 382.729006 -61.412583 
L 381.005052 -63.688243 
L 379.281099 -65.411439 
L 377.557146 -62.6837 
L 375.833192 -65.240686 
L 374.109239 -68.895889 
L 372.385285 -70.14452 
L 370.661332 -70.66613 
L 368.937378 -72.872375 
L 367.213425 -72.526884 
L 365.489471 -76.878888 
L 363.765518 -78.202393 
L 362.041564 -80.472604 
L 360.317611 -82.354275 
L 358.593657 -87.601504 
L 356.869704 -88.749255 
L 355.14575 -87.725057 
L 353.421797 -81.596078 
L 351.697843 -70.776313 
L 349.97389 -64.583741 
L 348.249936 -64.875934 
L 346.525983 -65.115447 
L 344.80203 -67.887295 
L 343.078076 -69.312874 
L 341.354123 -70.563802 
L 339.630169 -74.429438 
L 337.906216 -72.345726 
L 336.182262 -75.180101 
L 334.458309 -72.126383 
L 332.734355 -68.836459 
L 331.010402 -66.301963 
L 329.286448 -69.398895 
L 327.562495 -69.6529 
L 325.838541 -73.009175 
L 324.114588 -73.537975 
L 322.390634 -76.674918 
L 320.666681 -80.34245 
L 318.942727 -83.471355 
L 317.218774 -80.908327 
L 315.49482 -80.292588 
L 313.770867 -79.982379 
L 312.046914 -72.16187 
L 310.32296 -70.626529 
L 308.599007 -71.588081 
L 306.875053 -75.450429 
L 305.1511 -76.42364 
L 303.427146 -78.141972 
L 301.703193 -74.407764 
L 299.979239 -74.253374 
L 298.255286 -65.710016 
L 296.531332 -65.26322 
L 294.807379 -66.64025 
L 293.083425 -66.986314 
L 291.359472 -69.006836 
L 289.635518 -72.169258 
L 287.911565 -71.947781 
L 286.187611 -74.253956 
L 284.463658 -73.995931 
L 282.739704 -79.962381 
L 281.015751 -77.506897 
L 279.291798 -74.12671 
L 277.567844 -71.747393 
L 275.843891 -66.447255 
L 274.119937 -61.890467 
L 272.395984 -66.962472 
L 270.67203 -66.802656 
L 268.948077 -67.288309 
L 267.224123 -67.847361 
L 265.50017 -68.044443 
L 263.776216 -68.033034 
L 262.052263 -71.564232 
L 260.328309 -74.029939 
L 258.604356 -72.983475 
L 256.880402 -70.380437 
L 255.156449 -67.413795 
L 253.432495 -60.890473 
L 251.708542 -60.724981 
L 249.984588 -59.222233 
L 248.260635 -64.041011 
L 246.536682 -61.258237 
L 244.812728 -64.912965 
z
" style="stroke: #1f77b4; stroke-opacity: 0.2"/>
    </defs>
    <g clip-path="url(#p84202ae71a)">
     <use xlink:href="#m22d9f3a04b" x="0" y="135.674687" style="fill: #1f77b4; fill-opacity: 0.2; stroke: #1f77b4; stroke-opacity: 0.2"/>
    </g>
   </g>
   <g id="matplotlib.axis_3">
    <g id="xtick_7">
     <g id="line2d_14">
      <g>
       <use xlink:href="#mdbe68d8dd9" x="244.812728" y="98.118437" style="stroke: #000000; stroke-width: 0.8"/>
      </g>
     </g>
     <g id="text_12">
      <!-- 0 -->
      <g transform="translate(241.631478 112.716875) scale(0.1 -0.1)">
       <use xlink:href="#DejaVuSans-30"/>
      </g>
     </g>
    </g>
    <g id="xtick_8">
     <g id="line2d_15">
      <g>
       <use xlink:href="#mdbe68d8dd9" x="279.291798" y="98.118437" style="stroke: #000000; stroke-width: 0.8"/>
      </g>
     </g>
     <g id="text_13">
      <!-- 2 -->
      <g transform="translate(276.110548 112.716875) scale(0.1 -0.1)">
       <use xlink:href="#DejaVuSans-32"/>
      </g>
     </g>
    </g>
    <g id="xtick_9">
     <g id="line2d_16">
      <g>
       <use xlink:href="#mdbe68d8dd9" x="313.770867" y="98.118437" style="stroke: #000000; stroke-width: 0.8"/>
      </g>
     </g>
     <g id="text_14">
      <!-- 4 -->
      <g transform="translate(310.589617 112.716875) scale(0.1 -0.1)">
       <use xlink:href="#DejaVuSans-34"/>
      </g>
     </g>
    </g>
    <g id="xtick_10">
     <g id="line2d_17">
      <g>
       <use xlink:href="#mdbe68d8dd9" x="348.249936" y="98.118437" style="stroke: #000000; stroke-width: 0.8"/>
      </g>
     </g>
     <g id="text_15">
      <!-- 6 -->
      <g transform="translate(345.068686 112.716875) scale(0.1 -0.1)">
       <use xlink:href="#DejaVuSans-36"/>
      </g>
     </g>
    </g>
    <g id="xtick_11">
     <g id="line2d_18">
      <g>
       <use xlink:href="#mdbe68d8dd9" x="382.729006" y="98.118437" style="stroke: #000000; stroke-width: 0.8"/>
      </g>
     </g>
     <g id="text_16">
      <!-- 8 -->
      <g transform="translate(379.547756 112.716875) scale(0.1 -0.1)">
       <use xlink:href="#DejaVuSans-38"/>
      </g>
     </g>
    </g>
    <g id="xtick_12">
     <g id="line2d_19">
      <g>
       <use xlink:href="#mdbe68d8dd9" x="417.208075" y="98.118437" style="stroke: #000000; stroke-width: 0.8"/>
      </g>
     </g>
     <g id="text_17">
      <!-- 10 -->
      <g transform="translate(410.845575 112.716875) scale(0.1 -0.1)">
       <use xlink:href="#DejaVuSans-31"/>
       <use xlink:href="#DejaVuSans-30" x="63.623047"/>
      </g>
     </g>
    </g>
    <g id="text_18">
     <!-- time -->
     <g transform="translate(318.852331 126.395) scale(0.1 -0.1)">
      <use xlink:href="#DejaVuSans-74"/>
      <use xlink:href="#DejaVuSans-69" x="39.208984"/>
      <use xlink:href="#DejaVuSans-6d" x="66.992188"/>
      <use xlink:href="#DejaVuSans-65" x="164.404297"/>
     </g>
    </g>
   </g>
   <g id="matplotlib.axis_4">
    <g id="ytick_3">
     <g id="line2d_20">
      <g>
       <use xlink:href="#mf490d29864" x="236.279158" y="72.798376" style="stroke: #000000; stroke-width: 0.8"/>
      </g>
     </g>
    </g>
    <g id="ytick_4">
     <g id="line2d_21">
      <g>
       <use xlink:href="#mf490d29864" x="236.279158" y="32.683779" style="stroke: #000000; stroke-width: 0.8"/>
      </g>
     </g>
    </g>
   </g>
   <g id="line2d_22">
    <path d="M 244.812728 73.480349 
L 246.536682 67.793269 
L 248.260635 59.03342 
L 249.984588 69.072773 
L 251.708542 63.852463 
L 253.432495 70.182523 
L 255.156449 68.320125 
L 256.880402 70.052007 
L 258.604356 71.200558 
L 260.328309 71.870223 
L 262.052263 72.053277 
L 263.776216 74.478052 
L 265.50017 74.388196 
L 267.224123 76.054217 
L 268.948077 75.957351 
L 270.67203 71.23833 
L 272.395984 66.932094 
L 274.119937 67.247133 
L 275.843891 69.893402 
L 277.567844 72.229124 
L 279.291798 65.686983 
L 281.015751 65.09181 
L 282.739704 68.499372 
L 284.463658 68.432014 
L 286.187611 69.553559 
L 287.911565 72.909109 
L 289.635518 68.766302 
L 291.359472 67.708096 
L 293.083425 64.089771 
L 294.807379 63.533708 
L 296.531332 64.199323 
L 298.255286 66.728099 
L 299.979239 69.198518 
L 301.703193 69.492766 
L 303.427146 72.223053 
L 305.1511 71.51257 
L 306.875053 74.804212 
L 308.599007 72.771685 
L 310.32296 76.361295 
L 312.046914 77.526224 
L 313.770867 78.288072 
L 315.49482 75.521367 
L 317.218774 77.012247 
L 318.942727 79.635024 
L 320.666681 80.394004 
L 322.390634 80.400412 
L 324.114588 79.264918 
L 325.838541 75.542496 
L 327.562495 72.992662 
L 329.286448 70.130598 
L 331.010402 69.165725 
L 332.734355 73.287656 
L 334.458309 71.845954 
L 336.182262 74.106146 
L 337.906216 75.511314 
L 339.630169 75.475703 
L 341.354123 75.202334 
L 343.078076 75.119014 
L 344.80203 72.768359 
L 346.525983 69.2706 
L 348.249936 68.700867 
L 349.97389 64.041662 
L 351.697843 63.352199 
L 353.421797 60.048971 
L 355.14575 62.088322 
L 356.869704 62.316044 
L 358.593657 65.69111 
L 360.317611 67.815129 
L 362.041564 68.705242 
L 363.765518 68.525686 
L 365.489471 70.8844 
L 367.213425 73.320628 
L 368.937378 71.487843 
L 370.661332 74.48846 
L 372.385285 74.545224 
L 374.109239 72.876078 
L 375.833192 75.49372 
L 377.557146 76.573205 
L 379.281099 78.228649 
L 381.005052 77.573679 
L 382.729006 78.4882 
L 384.452959 78.583563 
L 386.176913 80.101541 
L 387.900866 78.555302 
L 389.62482 79.626142 
L 391.348773 79.89962 
L 393.072727 79.446255 
L 394.79668 77.631315 
L 396.520634 79.05547 
L 398.244587 78.83567 
L 399.968541 79.052874 
L 401.692494 82.140978 
L 403.416448 81.44109 
L 405.140401 79.022023 
L 406.864355 80.703101 
L 408.588308 81.111583 
L 410.312262 82.814719 
L 412.036215 81.462046 
L 413.760168 81.877965 
L 415.484122 82.061468 
" clip-path="url(#p84202ae71a)" style="fill: none; stroke: #1f77b4; stroke-width: 1.5; stroke-linecap: square"/>
   </g>
   <g id="line2d_23">
    <path d="M 244.812728 82.869362 
L 246.536682 82.719077 
L 248.260635 76.894637 
L 249.984588 80.578578 
L 251.708542 77.968809 
L 253.432495 78.54541 
L 255.156449 72.941988 
L 256.880402 70.538267 
L 258.604356 67.701148 
L 260.328309 67.024968 
L 262.052263 69.735932 
L 263.776216 72.189596 
L 265.50017 71.777403 
L 267.224123 73.154714 
L 268.948077 72.485524 
L 270.67203 73.053707 
L 272.395984 73.875018 
L 274.119937 77.013102 
L 275.843891 74.64703 
L 277.567844 69.779768 
L 279.291798 67.054965 
L 281.015751 64.573714 
L 282.739704 62.709052 
L 284.463658 68.331736 
L 286.187611 66.885498 
L 287.911565 69.810998 
L 289.635518 69.571854 
L 291.359472 72.369058 
L 293.083425 73.612577 
L 294.807379 74.642756 
L 296.531332 75.293892 
L 298.255286 75.690987 
L 299.979239 68.872503 
L 301.703193 67.250335 
L 303.427146 64.528488 
L 305.1511 65.979796 
L 306.875053 67.275375 
L 308.599007 70.263404 
L 310.32296 70.219991 
L 312.046914 68.92348 
L 313.770867 63.04193 
L 315.49482 62.408214 
L 317.218774 61.672437 
L 318.942727 60.142281 
L 320.666681 62.462188 
L 322.390634 65.184735 
L 324.114588 68.343565 
L 325.838541 69.225543 
L 327.562495 71.67628 
L 329.286448 72.201761 
L 331.010402 74.957788 
L 332.734355 72.449457 
L 334.458309 69.241571 
L 336.182262 66.600255 
L 337.906216 68.825352 
L 339.630169 68.793765 
L 341.354123 71.094122 
L 343.078076 71.813084 
L 344.80203 73.529805 
L 346.525983 75.87685 
L 348.249936 75.938274 
L 349.97389 76.43624 
L 351.697843 70.354606 
L 353.421797 61.569498 
L 355.14575 56.164767 
L 356.869704 55.620737 
L 358.593657 55.8968 
L 360.317611 61.118895 
L 362.041564 62.249844 
L 363.765518 64.245591 
L 365.489471 66.197006 
L 367.213425 69.275575 
L 368.937378 68.83875 
L 370.661332 70.00639 
L 372.385285 71.221773 
L 374.109239 72.544008 
L 375.833192 75.563955 
L 377.557146 77.151099 
L 379.281099 75.555128 
L 381.005052 77.045904 
L 382.729006 78.815358 
L 384.452959 79.126521 
L 386.176913 80.490342 
L 387.900866 78.00202 
L 389.62482 80.328664 
L 391.348773 80.53465 
L 393.072727 82.142355 
L 394.79668 81.282117 
L 396.520634 82.422403 
L 398.244587 81.533973 
L 399.968541 82.0548 
L 401.692494 81.677339 
L 403.416448 81.046511 
L 405.140401 81.912129 
L 406.864355 81.386077 
L 408.588308 79.003601 
L 410.312262 78.460721 
L 412.036215 79.512931 
L 413.760168 81.03688 
L 415.484122 79.423709 
" clip-path="url(#p84202ae71a)" style="fill: none; stroke-dasharray: 6,2.25; stroke-dashoffset: 0; stroke: #1f77b4; stroke-width: 1.5"/>
   </g>
   <g id="line2d_24">
    <path d="M 279.291798 98.118437 
L 279.291798 20.798437 
" clip-path="url(#p84202ae71a)" style="fill: none; stroke-dasharray: 5.55,2.4; stroke-dashoffset: 0; stroke: #808080; stroke-width: 1.5"/>
   </g>
   <g id="patch_6">
    <path d="M 236.279158 98.118437 
L 236.279158 20.798437 
" style="fill: none; stroke: #000000; stroke-width: 0.8; stroke-linejoin: miter; stroke-linecap: square"/>
   </g>
   <g id="patch_7">
    <path d="M 236.279158 98.118437 
L 424.017692 98.118437 
" style="fill: none; stroke: #000000; stroke-width: 0.8; stroke-linejoin: miter; stroke-linecap: square"/>
   </g>
   <g id="text_19">
    <!-- trial_type = no stim -->
    <g transform="translate(280.610925 14.798437) scale(0.1 -0.1)">
     <defs>
      <path id="DejaVuSans-6e" d="M 3513 2113 
L 3513 0 
L 2938 0 
L 2938 2094 
Q 2938 2591 2744 2837 
Q 2550 3084 2163 3084 
Q 1697 3084 1428 2787 
Q 1159 2491 1159 1978 
L 1159 0 
L 581 0 
L 581 3500 
L 1159 3500 
L 1159 2956 
Q 1366 3272 1645 3428 
Q 1925 3584 2291 3584 
Q 2894 3584 3203 3211 
Q 3513 2838 3513 2113 
z
" transform="scale(0.015625)"/>
      <path id="DejaVuSans-6f" d="M 1959 3097 
Q 1497 3097 1228 2736 
Q 959 2375 959 1747 
Q 959 1119 1226 758 
Q 1494 397 1959 397 
Q 2419 397 2687 759 
Q 2956 1122 2956 1747 
Q 2956 2369 2687 2733 
Q 2419 3097 1959 3097 
z
M 1959 3584 
Q 2709 3584 3137 3096 
Q 3566 2609 3566 1747 
Q 3566 888 3137 398 
Q 2709 -91 1959 -91 
Q 1206 -91 779 398 
Q 353 888 353 1747 
Q 353 2609 779 3096 
Q 1206 3584 1959 3584 
z
" transform="scale(0.015625)"/>
      <path id="DejaVuSans-73" d="M 2834 3397 
L 2834 2853 
Q 2591 2978 2328 3040 
Q 2066 3103 1784 3103 
Q 1356 3103 1142 2972 
Q 928 2841 928 2578 
Q 928 2378 1081 2264 
Q 1234 2150 1697 2047 
L 1894 2003 
Q 2506 1872 2764 1633 
Q 3022 1394 3022 966 
Q 3022 478 2636 193 
Q 2250 -91 1575 -91 
Q 1294 -91 989 -36 
Q 684 19 347 128 
L 347 722 
Q 666 556 975 473 
Q 1284 391 1588 391 
Q 1994 391 2212 530 
Q 2431 669 2431 922 
Q 2431 1156 2273 1281 
Q 2116 1406 1581 1522 
L 1381 1569 
Q 847 1681 609 1914 
Q 372 2147 372 2553 
Q 372 3047 722 3315 
Q 1072 3584 1716 3584 
Q 2034 3584 2315 3537 
Q 2597 3491 2834 3397 
z
" transform="scale(0.015625)"/>
     </defs>
     <use xlink:href="#DejaVuSans-74"/>
     <use xlink:href="#DejaVuSans-72" x="39.208984"/>
     <use xlink:href="#DejaVuSans-69" x="80.322266"/>
     <use xlink:href="#DejaVuSans-61" x="108.105469"/>
     <use xlink:href="#DejaVuSans-6c" x="169.384766"/>
     <use xlink:href="#DejaVuSans-5f" x="197.167969"/>
     <use xlink:href="#DejaVuSans-74" x="247.167969"/>
     <use xlink:href="#DejaVuSans-79" x="286.376953"/>
     <use xlink:href="#DejaVuSans-70" x="345.556641"/>
     <use xlink:href="#DejaVuSans-65" x="409.033203"/>
     <use xlink:href="#DejaVuSans-20" x="470.556641"/>
     <use xlink:href="#DejaVuSans-3d" x="502.34375"/>
     <use xlink:href="#DejaVuSans-20" x="586.132812"/>
     <use xlink:href="#DejaVuSans-6e" x="617.919922"/>
     <use xlink:href="#DejaVuSans-6f" x="681.298828"/>
     <use xlink:href="#DejaVuSans-20" x="742.480469"/>
     <use xlink:href="#DejaVuSans-73" x="774.267578"/>
     <use xlink:href="#DejaVuSans-74" x="826.367188"/>
     <use xlink:href="#DejaVuSans-69" x="865.576172"/>
     <use xlink:href="#DejaVuSans-6d" x="893.359375"/>
    </g>
   </g>
  </g>
  <g id="axes_3">
   <g id="patch_8">
    <path d="M 438.317692 98.118437 
L 626.056225 98.118437 
L 626.056225 20.798437 
L 438.317692 20.798437 
z
" style="fill: #ffffff"/>
   </g>
   <g id="PolyCollection_5">
    <defs>
     <path id="m99fb014fb6" d="M 446.851261 -84.983512 
L 446.851261 -58.611505 
L 448.575215 -63.045638 
L 450.299168 -73.217983 
L 452.023122 -62.839174 
L 453.747075 -67.170736 
L 455.471029 -67.100177 
L 457.194982 -64.418149 
L 458.918936 -65.597925 
L 460.642889 -63.835798 
L 462.366843 -68.580915 
L 464.090796 -66.394365 
L 465.81475 -63.803152 
L 467.538703 -64.880332 
L 469.262657 -61.10185 
L 470.98661 -61.10769 
L 472.710563 -60.063385 
L 474.434517 -58.032257 
L 476.15847 -57.885425 
L 477.882424 -56.738767 
L 479.606377 -55.815682 
L 481.330331 -58.02578 
L 483.054284 -62.340387 
L 484.778238 -64.909473 
L 486.502191 -62.163177 
L 488.226145 -61.029131 
L 489.950098 -58.804779 
L 491.674052 -61.515676 
L 493.398005 -64.146477 
L 495.121959 -65.563872 
L 496.845912 -63.233755 
L 498.569866 -62.955873 
L 500.293819 -59.299375 
L 502.017773 -58.021221 
L 503.741726 -56.795614 
L 505.465679 -56.791425 
L 507.189633 -56.848118 
L 508.913586 -54.081993 
L 510.63754 -55.977362 
L 512.361493 -56.911064 
L 514.085447 -58.058613 
L 515.8094 -55.552302 
L 517.533354 -57.083873 
L 519.257307 -55.490586 
L 520.981261 -54.370666 
L 522.705214 -54.430756 
L 524.429168 -53.244224 
L 526.153121 -55.491473 
L 527.877075 -58.027754 
L 529.601028 -59.606887 
L 531.324982 -59.085106 
L 533.048935 -57.818969 
L 534.772889 -57.097505 
L 536.496842 -58.219842 
L 538.220795 -59.413098 
L 539.944749 -62.125456 
L 541.668702 -63.264369 
L 543.392656 -60.093042 
L 545.116609 -64.597458 
L 546.840563 -65.277178 
L 548.564516 -66.425529 
L 550.28847 -63.426444 
L 552.012423 -61.51118 
L 553.736377 -61.882986 
L 555.46033 -60.122542 
L 557.184284 -57.730041 
L 558.908237 -58.401024 
L 560.632191 -57.727839 
L 562.356144 -55.411303 
L 564.080098 -53.942785 
L 565.804051 -53.124707 
L 567.528005 -52.716325 
L 569.251958 -53.115421 
L 570.975912 -52.855274 
L 572.699865 -50.050121 
L 574.423818 -51.1546 
L 576.147772 -52.652904 
L 577.871725 -53.110323 
L 579.595679 -51.663518 
L 581.319632 -52.266169 
L 583.043586 -51.26733 
L 584.767539 -50.773031 
L 586.491493 -52.022939 
L 588.215446 -52.481515 
L 589.9394 -51.046687 
L 591.663353 -51.173647 
L 593.387307 -53.613488 
L 595.11126 -57.503477 
L 596.835214 -58.74262 
L 598.559167 -55.05236 
L 600.283121 -55.941222 
L 602.007074 -55.328263 
L 603.731028 -54.177035 
L 605.454981 -53.890364 
L 607.178934 -54.20564 
L 608.902888 -54.646232 
L 610.626841 -56.267106 
L 612.350795 -59.556644 
L 614.074748 -61.573367 
L 615.798702 -61.826647 
L 617.522655 -60.405574 
L 617.522655 -69.146408 
L 617.522655 -69.146408 
L 615.798702 -71.447251 
L 614.074748 -70.288399 
L 612.350795 -68.682603 
L 610.626841 -64.47385 
L 608.902888 -61.990906 
L 607.178934 -61.655987 
L 605.454981 -61.743685 
L 603.731028 -60.452128 
L 602.007074 -64.224967 
L 600.283121 -63.532789 
L 598.559167 -63.177115 
L 596.835214 -67.667731 
L 595.11126 -65.492723 
L 593.387307 -62.226569 
L 591.663353 -58.746832 
L 589.9394 -58.57675 
L 588.215446 -59.288543 
L 586.491493 -59.344442 
L 584.767539 -57.833418 
L 583.043586 -58.08134 
L 581.319632 -57.541551 
L 579.595679 -58.609739 
L 577.871725 -59.671436 
L 576.147772 -61.225812 
L 574.423818 -59.065382 
L 572.699865 -57.065655 
L 570.975912 -62.037669 
L 569.251958 -61.849203 
L 567.528005 -61.206526 
L 565.804051 -60.878488 
L 564.080098 -63.569098 
L 562.356144 -65.589533 
L 560.632191 -66.613247 
L 558.908237 -67.735401 
L 557.184284 -67.189475 
L 555.46033 -71.526744 
L 553.736377 -72.203172 
L 552.012423 -73.120505 
L 550.28847 -76.813679 
L 548.564516 -80.35942 
L 546.840563 -79.842375 
L 545.116609 -76.184093 
L 543.392656 -69.821156 
L 541.668702 -73.475899 
L 539.944749 -72.947468 
L 538.220795 -66.990892 
L 536.496842 -67.991696 
L 534.772889 -66.513411 
L 533.048935 -69.233252 
L 531.324982 -71.143034 
L 529.601028 -70.556837 
L 527.877075 -68.437334 
L 526.153121 -63.952203 
L 524.429168 -62.114927 
L 522.705214 -62.386431 
L 520.981261 -62.975123 
L 519.257307 -65.899429 
L 517.533354 -64.961903 
L 515.8094 -64.139616 
L 514.085447 -65.871024 
L 512.361493 -66.698138 
L 510.63754 -64.013191 
L 508.913586 -62.532243 
L 507.189633 -65.405756 
L 505.465679 -64.381079 
L 503.741726 -65.14077 
L 502.017773 -66.771679 
L 500.293819 -71.399479 
L 498.569866 -74.23798 
L 496.845912 -72.291834 
L 495.121959 -76.499054 
L 493.398005 -75.195727 
L 491.674052 -72.094931 
L 489.950098 -68.14501 
L 488.226145 -72.316484 
L 486.502191 -72.052734 
L 484.778238 -76.230322 
L 483.054284 -72.055595 
L 481.330331 -66.967832 
L 479.606377 -63.299622 
L 477.882424 -66.061054 
L 476.15847 -64.755518 
L 474.434517 -67.081158 
L 472.710563 -68.534797 
L 470.98661 -69.531921 
L 469.262657 -70.468755 
L 467.538703 -75.300087 
L 465.81475 -73.704631 
L 464.090796 -78.127535 
L 462.366843 -80.092727 
L 460.642889 -75.22438 
L 458.918936 -76.167137 
L 457.194982 -76.426872 
L 455.471029 -78.59444 
L 453.747075 -78.934149 
L 452.023122 -77.439525 
L 450.299168 -97.685709 
L 448.575215 -89.87304 
L 446.851261 -84.983512 
z
" style="stroke: #1f77b4; stroke-opacity: 0.2"/>
    </defs>
    <g clip-path="url(#pba32c446a2)">
     <use xlink:href="#m99fb014fb6" x="0" y="135.674687" style="fill: #1f77b4; fill-opacity: 0.2; stroke: #1f77b4; stroke-opacity: 0.2"/>
    </g>
   </g>
   <g id="PolyCollection_6">
    <defs>
     <path id="m59b30651de" d="M 446.851261 -84.108472 
L 446.851261 -52.324886 
L 448.575215 -60.466104 
L 450.299168 -69.694194 
L 452.023122 -68.512043 
L 453.747075 -69.06534 
L 455.471029 -66.041199 
L 457.194982 -65.047246 
L 458.918936 -63.773933 
L 460.642889 -63.13586 
L 462.366843 -61.518053 
L 464.090796 -64.652852 
L 465.81475 -67.178222 
L 467.538703 -69.511303 
L 469.262657 -71.389972 
L 470.98661 -69.79859 
L 472.710563 -68.578507 
L 474.434517 -66.115432 
L 476.15847 -66.12144 
L 477.882424 -63.398887 
L 479.606377 -65.5002 
L 481.330331 -64.297059 
L 483.054284 -62.561097 
L 484.778238 -62.368314 
L 486.502191 -61.623835 
L 488.226145 -60.173098 
L 489.950098 -59.236113 
L 491.674052 -59.46352 
L 493.398005 -58.454179 
L 495.121959 -58.530217 
L 496.845912 -58.036638 
L 498.569866 -63.4546 
L 500.293819 -69.103821 
L 502.017773 -72.094136 
L 503.741726 -73.02941 
L 505.465679 -72.086097 
L 507.189633 -69.379428 
L 508.913586 -67.351926 
L 510.63754 -68.842272 
L 512.361493 -71.601676 
L 514.085447 -70.839974 
L 515.8094 -69.951626 
L 517.533354 -69.51005 
L 519.257307 -65.820325 
L 520.981261 -64.818742 
L 522.705214 -63.541809 
L 524.429168 -64.811504 
L 526.153121 -64.746851 
L 527.877075 -67.641774 
L 529.601028 -68.082038 
L 531.324982 -65.92526 
L 533.048935 -64.400545 
L 534.772889 -62.586342 
L 536.496842 -61.766776 
L 538.220795 -59.95849 
L 539.944749 -59.161232 
L 541.668702 -56.79089 
L 543.392656 -56.114622 
L 545.116609 -55.251094 
L 546.840563 -55.771024 
L 548.564516 -55.17732 
L 550.28847 -55.867898 
L 552.012423 -55.14515 
L 553.736377 -53.782076 
L 555.46033 -54.84199 
L 557.184284 -53.713021 
L 558.908237 -52.577117 
L 560.632191 -53.124014 
L 562.356144 -52.291602 
L 564.080098 -53.162638 
L 565.804051 -52.778838 
L 567.528005 -53.37701 
L 569.251958 -51.639641 
L 570.975912 -52.082084 
L 572.699865 -52.649449 
L 574.423818 -51.293807 
L 576.147772 -51.088841 
L 577.871725 -52.006731 
L 579.595679 -53.638257 
L 581.319632 -52.85858 
L 583.043586 -52.962522 
L 584.767539 -52.272961 
L 586.491493 -52.34567 
L 588.215446 -51.940911 
L 589.9394 -55.996445 
L 591.663353 -59.894903 
L 593.387307 -60.245577 
L 595.11126 -60.147202 
L 596.835214 -59.466032 
L 598.559167 -57.691005 
L 600.283121 -58.106485 
L 602.007074 -55.578592 
L 603.731028 -55.321407 
L 605.454981 -55.909618 
L 607.178934 -54.536111 
L 608.902888 -52.797223 
L 610.626841 -56.134082 
L 612.350795 -54.232356 
L 614.074748 -54.244453 
L 615.798702 -55.432587 
L 617.522655 -54.158571 
L 617.522655 -60.692065 
L 617.522655 -60.692065 
L 615.798702 -64.017127 
L 614.074748 -64.625716 
L 612.350795 -63.588652 
L 610.626841 -65.763638 
L 608.902888 -61.507541 
L 607.178934 -62.877406 
L 605.454981 -64.744724 
L 603.731028 -64.451413 
L 602.007074 -67.315424 
L 600.283121 -66.834361 
L 598.559167 -67.677304 
L 596.835214 -69.133088 
L 595.11126 -70.879506 
L 593.387307 -70.782128 
L 591.663353 -68.623028 
L 589.9394 -65.980309 
L 588.215446 -59.328753 
L 586.491493 -60.194044 
L 584.767539 -59.959665 
L 583.043586 -59.718478 
L 581.319632 -60.522112 
L 579.595679 -61.433171 
L 577.871725 -59.575542 
L 576.147772 -58.611408 
L 574.423818 -58.570642 
L 572.699865 -59.029287 
L 570.975912 -59.065176 
L 569.251958 -58.445024 
L 567.528005 -61.020668 
L 565.804051 -60.405246 
L 564.080098 -60.298098 
L 562.356144 -59.526911 
L 560.632191 -61.485604 
L 558.908237 -61.438523 
L 557.184284 -61.642099 
L 555.46033 -63.228479 
L 553.736377 -63.629131 
L 552.012423 -63.164269 
L 550.28847 -63.624207 
L 548.564516 -65.404736 
L 546.840563 -63.925689 
L 545.116609 -63.681174 
L 543.392656 -66.605766 
L 541.668702 -66.952547 
L 539.944749 -69.572244 
L 538.220795 -69.404783 
L 536.496842 -73.539931 
L 534.772889 -73.88699 
L 533.048935 -77.659516 
L 531.324982 -79.153205 
L 529.601028 -80.67663 
L 527.877075 -81.343801 
L 526.153121 -76.861764 
L 524.429168 -74.137258 
L 522.705214 -73.493391 
L 520.981261 -76.132619 
L 519.257307 -78.646461 
L 517.533354 -83.342394 
L 515.8094 -83.982818 
L 514.085447 -84.055568 
L 512.361493 -83.509494 
L 510.63754 -82.073687 
L 508.913586 -78.943235 
L 507.189633 -79.779274 
L 505.465679 -84.106673 
L 503.741726 -84.195042 
L 502.017773 -83.123682 
L 500.293819 -79.212181 
L 498.569866 -71.844659 
L 496.845912 -64.520997 
L 495.121959 -66.996913 
L 493.398005 -66.44684 
L 491.674052 -68.396316 
L 489.950098 -67.198138 
L 488.226145 -67.380006 
L 486.502191 -68.893877 
L 484.778238 -69.775095 
L 483.054284 -70.243664 
L 481.330331 -71.39262 
L 479.606377 -74.228749 
L 477.882424 -70.814782 
L 476.15847 -76.185985 
L 474.434517 -74.413342 
L 472.710563 -76.933341 
L 470.98661 -80.275538 
L 469.262657 -83.701227 
L 467.538703 -80.599142 
L 465.81475 -75.90185 
L 464.090796 -71.619495 
L 462.366843 -69.92615 
L 460.642889 -70.071986 
L 458.918936 -72.18895 
L 457.194982 -73.476965 
L 455.471029 -73.820223 
L 453.747075 -77.033524 
L 452.023122 -81.641908 
L 450.299168 -80.819324 
L 448.575215 -79.759272 
L 446.851261 -84.108472 
z
" style="stroke: #1f77b4; stroke-opacity: 0.2"/>
    </defs>
    <g clip-path="url(#pba32c446a2)">
     <use xlink:href="#m59b30651de" x="0" y="135.674687" style="fill: #1f77b4; fill-opacity: 0.2; stroke: #1f77b4; stroke-opacity: 0.2"/>
    </g>
   </g>
   <g id="matplotlib.axis_5">
    <g id="xtick_13">
     <g id="line2d_25">
      <g>
       <use xlink:href="#mdbe68d8dd9" x="446.851261" y="98.118437" style="stroke: #000000; stroke-width: 0.8"/>
      </g>
     </g>
     <g id="text_20">
      <!-- 0 -->
      <g transform="translate(443.670011 112.716875) scale(0.1 -0.1)">
       <use xlink:href="#DejaVuSans-30"/>
      </g>
     </g>
    </g>
    <g id="xtick_14">
     <g id="line2d_26">
      <g>
       <use xlink:href="#mdbe68d8dd9" x="481.330331" y="98.118437" style="stroke: #000000; stroke-width: 0.8"/>
      </g>
     </g>
     <g id="text_21">
      <!-- 2 -->
      <g transform="translate(478.149081 112.716875) scale(0.1 -0.1)">
       <use xlink:href="#DejaVuSans-32"/>
      </g>
     </g>
    </g>
    <g id="xtick_15">
     <g id="line2d_27">
      <g>
       <use xlink:href="#mdbe68d8dd9" x="515.8094" y="98.118437" style="stroke: #000000; stroke-width: 0.8"/>
      </g>
     </g>
     <g id="text_22">
      <!-- 4 -->
      <g transform="translate(512.62815 112.716875) scale(0.1 -0.1)">
       <use xlink:href="#DejaVuSans-34"/>
      </g>
     </g>
    </g>
    <g id="xtick_16">
     <g id="line2d_28">
      <g>
       <use xlink:href="#mdbe68d8dd9" x="550.28847" y="98.118437" style="stroke: #000000; stroke-width: 0.8"/>
      </g>
     </g>
     <g id="text_23">
      <!-- 6 -->
      <g transform="translate(547.10722 112.716875) scale(0.1 -0.1)">
       <use xlink:href="#DejaVuSans-36"/>
      </g>
     </g>
    </g>
    <g id="xtick_17">
     <g id="line2d_29">
      <g>
       <use xlink:href="#mdbe68d8dd9" x="584.767539" y="98.118437" style="stroke: #000000; stroke-width: 0.8"/>
      </g>
     </g>
     <g id="text_24">
      <!-- 8 -->
      <g transform="translate(581.586289 112.716875) scale(0.1 -0.1)">
       <use xlink:href="#DejaVuSans-38"/>
      </g>
     </g>
    </g>
    <g id="xtick_18">
     <g id="line2d_30">
      <g>
       <use xlink:href="#mdbe68d8dd9" x="619.246609" y="98.118437" style="stroke: #000000; stroke-width: 0.8"/>
      </g>
     </g>
     <g id="text_25">
      <!-- 10 -->
      <g transform="translate(612.884109 112.716875) scale(0.1 -0.1)">
       <use xlink:href="#DejaVuSans-31"/>
       <use xlink:href="#DejaVuSans-30" x="63.623047"/>
      </g>
     </g>
    </g>
    <g id="text_26">
     <!-- time -->
     <g transform="translate(520.890865 126.395) scale(0.1 -0.1)">
      <use xlink:href="#DejaVuSans-74"/>
      <use xlink:href="#DejaVuSans-69" x="39.208984"/>
      <use xlink:href="#DejaVuSans-6d" x="66.992188"/>
      <use xlink:href="#DejaVuSans-65" x="164.404297"/>
     </g>
    </g>
   </g>
   <g id="matplotlib.axis_6">
    <g id="ytick_5">
     <g id="line2d_31">
      <g>
       <use xlink:href="#mf490d29864" x="438.317692" y="72.798376" style="stroke: #000000; stroke-width: 0.8"/>
      </g>
     </g>
    </g>
    <g id="ytick_6">
     <g id="line2d_32">
      <g>
       <use xlink:href="#mf490d29864" x="438.317692" y="32.683779" style="stroke: #000000; stroke-width: 0.8"/>
      </g>
     </g>
    </g>
   </g>
   <g id="line2d_33">
    <path d="M 446.851261 64.676003 
L 448.575215 59.495188 
L 450.299168 52.231831 
L 452.023122 65.416352 
L 453.747075 62.894319 
L 455.471029 63.130887 
L 457.194982 65.188287 
L 458.918936 64.934923 
L 460.642889 66.573212 
L 462.366843 61.529597 
L 464.090796 63.705098 
L 465.81475 66.587249 
L 467.538703 65.556578 
L 469.262657 69.814961 
L 470.98661 70.356367 
L 472.710563 71.535704 
L 474.434517 73.082488 
L 476.15847 74.533688 
L 477.882424 74.238499 
L 479.606377 76.115025 
L 481.330331 73.486512 
L 483.054284 68.34777 
L 484.778238 64.961325 
L 486.502191 68.738811 
L 488.226145 69.107827 
L 489.950098 72.590738 
L 491.674052 68.745099 
L 493.398005 65.874173 
L 495.121959 65.011553 
L 496.845912 67.945333 
L 498.569866 67.072635 
L 500.293819 70.825637 
L 502.017773 73.039944 
L 503.741726 74.7662 
L 505.465679 75.046096 
L 507.189633 74.704262 
L 508.913586 77.44388 
L 510.63754 75.901709 
L 512.361493 74.1388 
L 514.085447 73.858634 
L 515.8094 75.798218 
L 517.533354 74.956532 
L 519.257307 75.366273 
L 520.981261 77.370692 
L 522.705214 77.584921 
L 524.429168 78.241407 
L 526.153121 76.01144 
L 527.877075 72.780022 
L 529.601028 70.703624 
L 531.324982 71.001167 
L 533.048935 72.057884 
L 534.772889 73.770229 
L 536.496842 72.689733 
L 538.220795 72.518265 
L 539.944749 68.427223 
L 541.668702 67.504499 
L 543.392656 70.850915 
L 545.116609 65.611655 
L 546.840563 63.020638 
L 548.564516 62.392362 
L 550.28847 65.874139 
L 552.012423 68.33143 
L 553.736377 68.656819 
L 555.46033 70.228437 
L 557.184284 73.370704 
L 558.908237 72.441262 
L 560.632191 73.439664 
L 562.356144 75.284212 
L 564.080098 77.268409 
L 565.804051 78.737481 
L 567.528005 78.77319 
L 569.251958 78.273179 
L 570.975912 78.324161 
L 572.699865 81.984891 
L 574.423818 80.820045 
L 576.147772 79.114724 
L 577.871725 79.111286 
L 579.595679 80.692895 
L 581.319632 80.807469 
L 583.043586 81.215884 
L 584.767539 81.531436 
L 586.491493 80.281836 
L 588.215446 79.838249 
L 589.9394 81.172912 
L 591.663353 80.725144 
L 593.387307 77.802537 
L 595.11126 74.161633 
L 596.835214 72.568882 
L 598.559167 76.889702 
L 600.283121 75.9115 
L 602.007074 76.145373 
L 603.731028 78.35085 
L 605.454981 77.970018 
L 607.178934 77.944016 
L 608.902888 77.428209 
L 610.626841 75.505233 
L 612.350795 71.877428 
L 614.074748 70.006754 
L 615.798702 69.151769 
L 617.522655 70.96546 
" clip-path="url(#pba32c446a2)" style="fill: none; stroke: #1f77b4; stroke-width: 1.5; stroke-linecap: square"/>
   </g>
   <g id="line2d_34">
    <path d="M 446.851261 69.130666 
L 448.575215 66.28719 
L 450.299168 60.710556 
L 452.023122 60.595563 
L 453.747075 62.6815 
L 455.471029 65.905041 
L 457.194982 66.508866 
L 458.918936 67.803757 
L 460.642889 68.989392 
L 462.366843 70.024224 
L 464.090796 67.488085 
L 465.81475 63.961884 
L 467.538703 60.743276 
L 469.262657 58.364291 
L 470.98661 60.88513 
L 472.710563 62.766794 
L 474.434517 65.646215 
L 476.15847 64.476646 
L 477.882424 68.531556 
L 479.606377 65.797928 
L 481.330331 67.879955 
L 483.054284 69.241291 
L 484.778238 69.760883 
L 486.502191 70.459003 
L 488.226145 72.091577 
L 489.950098 72.072886 
L 491.674052 71.922479 
L 493.398005 73.340352 
L 495.121959 72.790087 
L 496.845912 74.357756 
L 498.569866 67.941246 
L 500.293819 61.76775 
L 502.017773 57.965791 
L 503.741726 57.063142 
L 505.465679 57.623221 
L 507.189633 61.199398 
L 508.913586 62.566433 
L 510.63754 60.561465 
L 512.361493 58.347384 
L 514.085447 58.544662 
L 515.8094 58.62803 
L 517.533354 58.980167 
L 519.257307 63.680667 
L 520.981261 65.397936 
L 522.705214 67.047508 
L 524.429168 66.372977 
L 526.153121 64.820092 
L 527.877075 60.973972 
L 529.601028 61.272611 
L 531.324982 63.666791 
L 533.048935 64.783085 
L 534.772889 67.52453 
L 536.496842 68.304364 
L 538.220795 71.062056 
L 539.944749 71.046156 
L 541.668702 73.803397 
L 543.392656 74.447103 
L 545.116609 76.22581 
L 546.840563 75.888384 
L 548.564516 75.548934 
L 550.28847 75.71746 
L 552.012423 76.404707 
L 553.736377 76.905984 
L 555.46033 76.530019 
L 557.184284 77.793877 
L 558.908237 78.769179 
L 560.632191 78.282413 
L 562.356144 79.763172 
L 564.080098 78.992373 
L 565.804051 79.381548 
L 567.528005 78.709665 
L 569.251958 80.573711 
L 570.975912 80.139269 
L 572.699865 79.952705 
L 574.423818 80.748546 
L 576.147772 80.811601 
L 577.871725 79.730902 
L 579.595679 78.017851 
L 581.319632 79.082074 
L 583.043586 79.53798 
L 584.767539 79.598213 
L 586.491493 79.477112 
L 588.215446 80.07221 
L 589.9394 75.209356 
L 591.663353 71.628152 
L 593.387307 70.251646 
L 595.11126 69.898894 
L 596.835214 71.45817 
L 598.559167 73.105356 
L 600.283121 73.100692 
L 602.007074 74.624245 
L 603.731028 75.884825 
L 605.454981 75.805083 
L 607.178934 76.93257 
L 608.902888 78.557538 
L 610.626841 74.70554 
L 612.350795 76.731274 
L 614.074748 76.250557 
L 615.798702 76.019877 
L 617.522655 78.211017 
" clip-path="url(#pba32c446a2)" style="fill: none; stroke-dasharray: 6,2.25; stroke-dashoffset: 0; stroke: #1f77b4; stroke-width: 1.5"/>
   </g>
   <g id="line2d_35">
    <path d="M 481.330331 98.118437 
L 481.330331 20.798437 
" clip-path="url(#pba32c446a2)" style="fill: none; stroke-dasharray: 5.55,2.4; stroke-dashoffset: 0; stroke: #808080; stroke-width: 1.5"/>
   </g>
   <g id="patch_9">
    <path d="M 438.317692 98.118437 
L 438.317692 20.798437 
" style="fill: none; stroke: #000000; stroke-width: 0.8; stroke-linejoin: miter; stroke-linecap: square"/>
   </g>
   <g id="patch_10">
    <path d="M 438.317692 98.118437 
L 626.056225 98.118437 
" style="fill: none; stroke: #000000; stroke-width: 0.8; stroke-linejoin: miter; stroke-linecap: square"/>
   </g>
   <g id="text_27">
    <!-- trial_type = sound -->
    <g transform="translate(486.115083 14.798437) scale(0.1 -0.1)">
     <defs>
      <path id="DejaVuSans-64" d="M 2906 2969 
L 2906 4863 
L 3481 4863 
L 3481 0 
L 2906 0 
L 2906 525 
Q 2725 213 2448 61 
Q 2172 -91 1784 -91 
Q 1150 -91 751 415 
Q 353 922 353 1747 
Q 353 2572 751 3078 
Q 1150 3584 1784 3584 
Q 2172 3584 2448 3432 
Q 2725 3281 2906 2969 
z
M 947 1747 
Q 947 1113 1208 752 
Q 1469 391 1925 391 
Q 2381 391 2643 752 
Q 2906 1113 2906 1747 
Q 2906 2381 2643 2742 
Q 2381 3103 1925 3103 
Q 1469 3103 1208 2742 
Q 947 2381 947 1747 
z
" transform="scale(0.015625)"/>
     </defs>
     <use xlink:href="#DejaVuSans-74"/>
     <use xlink:href="#DejaVuSans-72" x="39.208984"/>
     <use xlink:href="#DejaVuSans-69" x="80.322266"/>
     <use xlink:href="#DejaVuSans-61" x="108.105469"/>
     <use xlink:href="#DejaVuSans-6c" x="169.384766"/>
     <use xlink:href="#DejaVuSans-5f" x="197.167969"/>
     <use xlink:href="#DejaVuSans-74" x="247.167969"/>
     <use xlink:href="#DejaVuSans-79" x="286.376953"/>
     <use xlink:href="#DejaVuSans-70" x="345.556641"/>
     <use xlink:href="#DejaVuSans-65" x="409.033203"/>
     <use xlink:href="#DejaVuSans-20" x="470.556641"/>
     <use xlink:href="#DejaVuSans-3d" x="502.34375"/>
     <use xlink:href="#DejaVuSans-20" x="586.132812"/>
     <use xlink:href="#DejaVuSans-73" x="617.919922"/>
     <use xlink:href="#DejaVuSans-6f" x="670.019531"/>
     <use xlink:href="#DejaVuSans-75" x="731.201172"/>
     <use xlink:href="#DejaVuSans-6e" x="794.580078"/>
     <use xlink:href="#DejaVuSans-64" x="857.958984"/>
    </g>
   </g>
  </g>
  <g id="legend_1">
   <g id="text_28">
    <!-- application -->
    <g transform="translate(645.448125 55.918594) scale(0.1 -0.1)">
     <defs>
      <path id="DejaVuSans-63" d="M 3122 3366 
L 3122 2828 
Q 2878 2963 2633 3030 
Q 2388 3097 2138 3097 
Q 1578 3097 1268 2742 
Q 959 2388 959 1747 
Q 959 1106 1268 751 
Q 1578 397 2138 397 
Q 2388 397 2633 464 
Q 2878 531 3122 666 
L 3122 134 
Q 2881 22 2623 -34 
Q 2366 -91 2075 -91 
Q 1284 -91 818 406 
Q 353 903 353 1747 
Q 353 2603 823 3093 
Q 1294 3584 2113 3584 
Q 2378 3584 2631 3529 
Q 2884 3475 3122 3366 
z
" transform="scale(0.015625)"/>
     </defs>
     <use xlink:href="#DejaVuSans-61"/>
     <use xlink:href="#DejaVuSans-70" x="61.279297"/>
     <use xlink:href="#DejaVuSans-70" x="124.755859"/>
     <use xlink:href="#DejaVuSans-6c" x="188.232422"/>
     <use xlink:href="#DejaVuSans-69" x="216.015625"/>
     <use xlink:href="#DejaVuSans-63" x="243.798828"/>
     <use xlink:href="#DejaVuSans-61" x="298.779297"/>
     <use xlink:href="#DejaVuSans-74" x="360.058594"/>
     <use xlink:href="#DejaVuSans-69" x="399.267578"/>
     <use xlink:href="#DejaVuSans-6f" x="427.050781"/>
     <use xlink:href="#DejaVuSans-6e" x="488.232422"/>
    </g>
   </g>
   <g id="line2d_36">
    <path d="M 648.230937 67.096719 
L 658.230937 67.096719 
L 668.230937 67.096719 
" style="fill: none; stroke: #333333; stroke-width: 1.5; stroke-linecap: square"/>
   </g>
   <g id="text_29">
    <!-- pre -->
    <g transform="translate(676.230937 70.596719) scale(0.1 -0.1)">
     <use xlink:href="#DejaVuSans-70"/>
     <use xlink:href="#DejaVuSans-72" x="63.476562"/>
     <use xlink:href="#DejaVuSans-65" x="102.339844"/>
    </g>
   </g>
   <g id="line2d_37">
    <path d="M 648.230937 81.774844 
L 658.230937 81.774844 
L 668.230937 81.774844 
" style="fill: none; stroke-dasharray: 6,2.25; stroke-dashoffset: 0; stroke: #333333; stroke-width: 1.5"/>
   </g>
   <g id="text_30">
    <!-- post -->
    <g transform="translate(676.230937 85.274844) scale(0.1 -0.1)">
     <use xlink:href="#DejaVuSans-70"/>
     <use xlink:href="#DejaVuSans-6f" x="63.476562"/>
     <use xlink:href="#DejaVuSans-73" x="124.658203"/>
     <use xlink:href="#DejaVuSans-74" x="176.757812"/>
    </g>
   </g>
  </g>
 </g>
 <defs>
  <clipPath id="pd6ac00a994">
   <rect x="34.240625" y="20.798437" width="187.738533" height="77.32"/>
  </clipPath>
  <clipPath id="p84202ae71a">
   <rect x="236.279158" y="20.798437" width="187.738533" height="77.32"/>
  </clipPath>
  <clipPath id="pba32c446a2">
   <rect x="438.317692" y="20.798437" width="187.738533" height="77.32"/>
  </clipPath>
 </defs>
</svg>
